<svg width="690" height="397" viewBox="0 0 690 397" fill="none" xmlns="http://www.w3.org/2000/svg">
<path d="M717.19 396.684C717.19 396.86 556.808 397 359.013 397C161.218 397 0.812988 396.86 0.812988 396.684C0.812988 396.509 161.159 396.38 359.013 396.38C556.867 396.38 717.19 396.521 717.19 396.684Z" fill="#263238"/>
<path d="M567.557 259.647C568.727 259.402 578.27 303.108 577.019 320.102C575.767 337.095 567.557 396.181 567.557 396.181H528.213L521.114 312.57L522.459 396.181H469.583C469.583 396.181 457.338 338.721 459.525 321.33C461.712 303.938 473.338 258.174 473.338 258.174L567.557 259.647Z" fill="#263238"/>
<path d="M525.079 269.717C525.156 270.255 525.183 270.8 525.161 271.343C525.161 272.395 525.161 273.916 525.161 275.799C525.079 279.565 524.833 284.758 524.354 290.477C523.874 296.196 523.184 301.354 522.681 305.073C522.412 306.933 522.167 308.441 521.98 309.47C521.908 310.013 521.791 310.549 521.629 311.073C521.61 310.524 521.649 309.975 521.746 309.435C521.874 308.266 522.05 306.792 522.26 305.014C522.693 301.284 523.266 296.126 523.746 290.418C524.225 284.711 524.541 279.53 524.728 275.787C524.833 273.998 524.903 272.501 524.974 271.343C524.952 270.799 524.987 270.254 525.079 269.717Z" fill="#455A64"/>
<path d="M532.178 273.249C532.178 273.249 532.493 273.132 533.055 273.249C533.85 273.397 534.571 273.809 535.102 274.419C535.468 274.858 535.732 275.373 535.873 275.928C536.024 276.582 535.975 277.266 535.733 277.892C535.456 278.603 534.975 279.215 534.351 279.652C533.726 280.089 532.986 280.331 532.224 280.348C531.457 280.311 530.718 280.042 530.106 279.577C529.494 279.111 529.038 278.471 528.798 277.74C528.577 277.107 528.553 276.423 528.728 275.776C528.886 275.222 529.184 274.719 529.593 274.314C530.156 273.709 530.932 273.348 531.757 273.308C532.053 273.268 532.354 273.33 532.61 273.483C532.61 273.483 532.295 273.483 531.78 273.483C531.049 273.604 530.386 273.981 529.909 274.548C529.547 274.936 529.3 275.417 529.197 275.938C529.094 276.459 529.138 276.998 529.324 277.495C529.541 278.105 529.933 278.638 530.451 279.027C530.969 279.416 531.59 279.643 532.236 279.682C532.881 279.664 533.506 279.46 534.037 279.095C534.568 278.729 534.983 278.219 535.23 277.623C535.428 277.13 535.49 276.592 535.412 276.066C535.334 275.54 535.118 275.045 534.786 274.629C534.34 274.036 533.724 273.591 533.02 273.355C532.493 273.296 532.178 273.296 532.178 273.249Z" fill="#455A64"/>
<path d="M573.416 280.582C573.096 280.764 572.748 280.895 572.387 280.968C571.421 281.245 570.43 281.429 569.428 281.518C566.093 281.827 562.735 281.23 559.711 279.789C556.687 278.348 554.108 276.117 552.247 273.331C551.688 272.516 551.207 271.651 550.809 270.746C550.634 270.418 550.515 270.062 550.458 269.694C550.563 269.694 551.136 271.109 552.61 273.121C554.512 275.755 557.049 277.866 559.985 279.258C562.921 280.651 566.161 281.279 569.405 281.085C571.861 280.957 573.393 280.465 573.416 280.582Z" fill="#455A64"/>
<path d="M483.454 70.9979C480.472 81.8514 475.957 90.5646 471.56 94.927C467.162 99.2895 462.449 104.4 462.613 110.599C462.671 113.032 463.478 115.616 462.414 117.804C461.034 120.646 457.361 121.312 454.601 122.809C452.607 124.044 450.981 125.791 449.892 127.869C448.804 129.947 448.294 132.279 448.414 134.622C448.745 139.343 450.831 143.77 454.262 147.031C457.689 150.481 463.116 152.879 467.373 150.539C469.934 149.113 471.396 146.341 472.694 143.709C479.4 130.072 485.466 116.147 490.893 101.933" fill="#263238"/>
<path d="M510.892 24.5197C514.697 20.3026 519.694 17.3433 525.221 16.035C530.748 14.7267 536.541 15.1316 541.833 17.1957C547.124 19.2598 551.661 22.8854 554.842 27.5906C558.023 32.2958 559.696 37.8576 559.639 43.5367C559.558 50.7997 556.716 58.4252 559.639 65.0916C561.663 69.7699 566.364 73.3838 567.008 78.4948C567.768 84.4127 562.704 89.781 562.961 95.734C563.136 99.6286 565.581 103.067 568.388 105.757C571.195 108.447 574.458 110.693 577.031 113.605C584.177 121.733 584.633 134.575 579.23 143.943C573.826 153.311 563.382 159.206 552.634 160.481C541.886 161.755 530.927 158.796 521.372 153.674C515.173 150.317 509.349 145.873 505.664 139.861C501.98 133.85 500.717 126.061 503.629 119.64" fill="#263238"/>
<path d="M533.757 115.078C533.757 115.078 558.014 122.248 560.376 126.084C562.739 129.92 570.364 174.983 570.364 174.983L555.487 228.093C555.487 228.093 567.803 247.917 568.353 257.94C540.821 275.705 509.758 270.735 477.232 256.501L474.893 204.608L471.806 121.71L491.828 114.693L533.757 115.078Z" fill="#E0E0E0"/>
<path d="M560.727 238.782C560.431 238.808 560.134 238.808 559.838 238.782L557.288 238.607L547.932 237.859L517.067 235.169L486.203 232.291L476.846 231.356L474.308 231.063C474.012 231.045 473.718 230.998 473.431 230.923C473.727 230.895 474.024 230.895 474.32 230.923L476.87 231.087L486.226 231.835L517.102 234.537L547.967 237.402L557.323 238.35L559.861 238.63C560.153 238.66 560.442 238.711 560.727 238.782Z" fill="#489D59"/>
<path d="M532.26 180.328C532.26 180.492 521.605 180.632 508.459 180.632C495.313 180.632 484.659 180.492 484.659 180.328C484.659 180.164 495.313 180.024 508.459 180.024C521.605 180.024 532.26 180.153 532.26 180.328Z" fill="#489D59"/>
<path d="M564.294 144.715C563.673 144.833 563.043 144.895 562.411 144.902L557.253 145.195C552.891 145.44 546.879 145.791 540.248 146.306C533.616 146.82 527.617 147.37 523.278 147.803L518.131 148.294C517.504 148.384 516.87 148.419 516.237 148.399C516.851 148.237 517.476 148.124 518.108 148.06C519.278 147.873 521.067 147.639 523.231 147.37C527.558 146.832 533.558 146.2 540.201 145.697C546.844 145.195 552.867 144.89 557.23 144.762C559.417 144.762 561.183 144.668 562.399 144.668C563.031 144.634 563.665 144.65 564.294 144.715Z" fill="#489D59"/>
<path d="M560.376 126.119L584.726 192.164L601.1 159.627L622.456 164.001L610.164 215.286C609.536 219.746 607.539 223.9 604.449 227.177C601.359 230.453 597.328 232.69 592.913 233.578C589.219 234.337 585.391 234.122 581.805 232.956C578.219 231.789 574.998 229.71 572.458 226.923L564.844 218.537L560.376 126.119Z" fill="#E0E0E0"/>
<path d="M584.223 233.894C584.107 233.348 584.048 232.791 584.048 232.233C583.966 231.169 583.896 229.625 583.825 227.707C583.697 223.882 583.638 218.596 583.825 212.748C584.013 206.9 584.363 201.626 584.714 197.825C584.89 195.918 585.054 194.374 585.194 193.31C585.238 192.758 585.328 192.21 585.463 191.673C585.524 192.225 585.524 192.782 585.463 193.333C585.393 194.503 585.299 196.035 585.182 197.848C584.937 201.672 584.644 206.935 584.469 212.772C584.293 218.608 584.282 223.882 584.305 227.695C584.305 229.52 584.305 231.04 584.305 232.233C584.325 232.788 584.297 233.343 584.223 233.894Z" fill="#489D59"/>
<path d="M615.685 193.591C615.626 193.755 609.638 191.626 602.317 188.842C594.995 186.059 589.101 183.673 589.159 183.521C589.218 183.369 595.206 185.486 602.527 188.269C609.849 191.053 615.743 193.439 615.685 193.591Z" fill="#489D59"/>
<path d="M627.544 156.446L617.299 164.001L605.919 161.206L608.656 158.188L627.544 156.446Z" fill="#FFBE9D"/>
<path d="M619.228 129.172L630.573 133.698L633.006 142.844L627.544 156.446L607.498 159.37L613.345 153.37L612.585 148.142C612.585 148.142 606.995 146.387 606.854 145.534C606.714 144.68 607.545 141.803 608.41 141.662C609.275 141.522 615.135 143.709 615.135 143.709C615.135 143.709 608.188 138.212 608.387 137.335C608.585 136.458 609.322 134.189 610.726 133.943C612.129 133.698 623.322 138.972 623.322 138.972L625.135 143.124L626.725 136.493C626.725 136.493 616.772 133.698 619.228 129.172Z" fill="#FFBE9D"/>
<path d="M617.802 150.598C617.872 150.598 618.082 150.212 618.187 149.428C618.307 148.46 618.19 147.477 617.848 146.563C617.511 145.648 616.962 144.827 616.246 144.165C615.685 143.674 615.252 143.499 615.217 143.557C616.064 144.517 616.766 145.597 617.299 146.762C617.659 148.008 617.828 149.301 617.802 150.598Z" fill="#EB996E"/>
<path d="M623.193 148.621C622.985 147.641 622.836 146.649 622.748 145.651C622.698 144.531 622.506 143.423 622.175 142.353C621.951 141.703 621.597 141.106 621.134 140.598C620.599 140.087 619.967 139.69 619.275 139.429C616.561 138.446 614.117 137.651 612.328 137.09C611.383 136.721 610.404 136.45 609.404 136.283C610.297 136.758 611.233 137.15 612.199 137.452C613.942 138.13 616.398 138.996 619.053 139.967C619.671 140.187 620.236 140.534 620.713 140.984C621.134 141.429 621.46 141.954 621.673 142.528C622.011 143.552 622.231 144.612 622.327 145.686C622.364 146.722 622.662 147.731 623.193 148.621Z" fill="#EB996E"/>
<path d="M625.801 146.575C625.957 145.831 625.929 145.06 625.72 144.329C625.521 143.16 625.228 142.165 625.076 142.189C624.924 142.212 624.948 143.218 625.147 144.434C625.345 145.651 625.661 146.656 625.801 146.575Z" fill="#EB996E"/>
<path d="M540.693 227.613C540.693 227.613 558.879 221.368 559.312 221.169C559.745 220.97 572.177 215.181 571.101 211.812C571.101 211.812 574.61 209.017 573.546 207.45L568.563 209.544C568.563 209.544 575.581 204.971 574.411 200.865C574.411 200.865 575.148 199.474 574.411 198.608C573.674 197.743 570.013 200.351 567.3 201.988L562.061 204.093C559.774 205.014 557.245 205.137 554.879 204.444C554.336 204.269 553.876 203.901 553.585 203.41C553.294 202.919 553.193 202.338 553.301 201.778C554.295 197.73 554.165 193.488 552.926 189.509C552.926 189.509 551.628 189.965 550.739 192.772C549.57 196.363 546.061 199.135 544.681 201.497C543.932 202.854 542.728 205.006 541.851 206.62C541.485 207.273 540.992 207.846 540.402 208.306C539.811 208.766 539.135 209.103 538.412 209.298L539.663 218.771L540.693 227.613Z" fill="#FFBE9D"/>
<path d="M560.411 210.456C560.63 210.422 560.843 210.355 561.042 210.257C561.44 210.117 562.013 209.883 562.703 209.579C564.505 208.773 566.242 207.826 567.896 206.748C569.545 205.673 571.109 204.473 572.574 203.158C573.135 202.643 573.58 202.222 573.872 201.918C574.032 201.764 574.177 201.596 574.305 201.415C574.116 201.528 573.942 201.665 573.79 201.824L572.434 202.994C570.943 204.253 569.381 205.424 567.755 206.503C566.103 207.561 564.393 208.525 562.633 209.392L561.019 210.152C560.802 210.223 560.597 210.325 560.411 210.456Z" fill="#EB996E"/>
<path d="M560.727 214.081C561.192 213.991 561.644 213.842 562.072 213.637C563.119 213.199 564.132 212.683 565.101 212.093C566.067 211.506 567.001 210.865 567.896 210.175C568.291 209.912 568.653 209.602 568.972 209.251C568.972 209.181 567.195 210.421 564.937 211.836C563.768 212.514 562.762 213.005 561.978 213.438C561.543 213.615 561.124 213.83 560.727 214.081Z" fill="#EB996E"/>
<path d="M560.575 218.432C561.164 218.268 561.735 218.049 562.283 217.777C563.623 217.163 564.92 216.459 566.166 215.672C567.41 214.884 568.606 214.021 569.745 213.087C570.238 212.721 570.692 212.306 571.101 211.848C570.582 212.168 570.086 212.523 569.616 212.912C568.715 213.59 567.452 214.502 566.002 215.415C564.768 216.2 563.496 216.922 562.189 217.578C561.632 217.824 561.092 218.11 560.575 218.432Z" fill="#EB996E"/>
<path d="M540.692 227.613L473.186 247.917C465.573 244.47 459.221 238.741 455.007 231.525C450.793 224.309 448.927 215.961 449.666 207.637C451.794 183.778 454.601 152.399 455.432 144.481C456.812 131.347 471.876 121.675 471.876 121.675C492.577 123.02 487.992 163.966 487.992 163.966L479.653 211.064L538.353 208.725L540.692 227.613Z" fill="#E0E0E0"/>
<path d="M479.653 211.099C479.631 210.47 479.658 209.841 479.735 209.216C479.817 208.046 480.016 206.269 480.261 204.105C480.787 199.813 481.7 193.895 482.916 187.392C484.132 180.889 485.337 175.03 486.296 170.808C486.764 168.691 487.173 166.983 487.466 165.814C487.58 165.194 487.756 164.586 487.992 164.001C487.94 164.627 487.842 165.249 487.7 165.861C487.442 167.159 487.115 168.855 486.717 170.89C485.875 175.135 484.717 181.006 483.513 187.497C482.308 193.988 481.325 199.895 480.682 204.164C480.402 206.234 480.156 207.941 479.969 209.239C479.919 209.867 479.813 210.49 479.653 211.099Z" fill="#263238"/>
<path d="M538.353 208.748C538.148 208.81 537.935 208.842 537.721 208.842L535.885 209.006C534.283 209.123 531.979 209.263 529.125 209.415C523.418 209.707 515.523 209.976 506.81 210.234L484.495 210.865L477.735 211.087H475.899C475.685 211.12 475.469 211.12 475.255 211.087C475.46 211.025 475.673 210.994 475.887 210.994L477.723 210.83C479.325 210.713 481.629 210.561 484.483 210.421C490.191 210.128 498.085 209.859 506.798 209.602L529.102 208.97L535.873 208.748H537.71C537.923 208.715 538.14 208.715 538.353 208.748Z" fill="#263238"/>
<path d="M482.215 193.24C481.803 193.295 481.386 193.295 480.975 193.24L477.606 192.983C474.764 192.772 470.846 192.491 466.507 192.316C462.168 192.141 458.25 192.07 455.397 192.059H452.028C451.613 192.08 451.197 192.053 450.789 191.977C451.17 191.876 451.563 191.825 451.958 191.825C452.753 191.755 453.911 191.708 455.338 191.661C458.192 191.568 462.133 191.556 466.484 191.743C470.835 191.93 474.753 192.258 477.595 192.597C479.01 192.749 480.144 192.912 480.94 193.029C481.371 193.051 481.799 193.121 482.215 193.24Z" fill="#489D59"/>
<path d="M487.992 160.75C487.992 160.913 480.331 160.75 470.905 160.329C461.478 159.908 453.841 159.487 453.853 159.311C453.864 159.136 461.501 159.311 470.928 159.72C480.355 160.13 487.992 160.574 487.992 160.75Z" fill="#489D59"/>
<path d="M455.993 232.362C456.161 231.977 456.377 231.616 456.636 231.286C457.092 230.607 457.805 229.66 458.671 228.514C461.018 225.547 463.599 222.774 466.39 220.222C469.186 217.672 472.186 215.357 475.361 213.298C476.53 212.514 477.583 211.906 478.296 211.532C478.659 211.295 479.052 211.11 479.466 210.982C479.466 211.064 477.992 212 475.63 213.66C469.456 217.949 463.879 223.038 459.045 228.794C457.151 230.993 456.075 232.42 455.993 232.362Z" fill="#489D59"/>
<path d="M504.425 238.782C504.261 238.782 503.127 232.479 501.887 224.631C500.647 216.783 499.782 210.397 499.946 210.374C500.109 210.351 501.256 216.69 502.495 224.537C503.735 232.385 504.6 238.759 504.425 238.782Z" fill="#489D59"/>
<g opacity="0.3">
<path d="M472.777 247.917L548.377 225.017C542.716 232.479 531.675 239.426 523.348 243.73C515.021 248.034 506.121 251.051 497.255 254.069C492.437 255.706 487.501 257.367 482.414 257.32C477.326 257.273 472.356 255.811 469.677 251.472L472.777 247.917Z" fill="black"/>
</g>
<path d="M485.805 53.5715C486.479 51.9046 486.57 50.0591 486.065 48.3336C485.56 46.6081 484.488 45.1034 483.021 44.063C481.51 43.0875 479.731 42.6112 477.935 42.7015C476.138 42.7917 474.416 43.4439 473.01 44.5659C471.648 45.7338 470.65 47.2687 470.136 48.9877C469.621 50.7068 469.612 52.5375 470.109 54.2615C470.735 56.3299 472.046 58.1239 473.826 59.3487C475.606 60.5735 477.75 61.1562 479.905 61.0011C482.061 60.8459 484.099 59.9622 485.686 58.4951C487.272 57.028 488.312 55.0649 488.635 52.9283" fill="#263238"/>
<path d="M497.102 33.8294V39.3497L495.933 122.049C495.793 131.651 503.944 139.417 514.225 139.475C524.599 139.546 533.253 131.745 533.558 122.049C533.862 111.874 534.376 101.161 534.376 101.161C534.376 101.161 547.545 99.3479 550.75 82.3192C552.341 73.8516 552.294 59.8871 551.92 48.4021C551.835 45.9649 551.259 43.57 550.224 41.3617C549.19 39.1533 547.719 37.1772 545.901 35.5522C544.083 33.9273 541.954 32.6873 539.644 31.9068C537.334 31.1263 534.889 30.8215 532.458 31.0107L497.102 33.8294Z" fill="#FFBE9D"/>
<path d="M546.049 58.4252C546.04 58.9971 545.807 59.5427 545.4 59.9449C544.994 60.3472 544.446 60.5742 543.874 60.5771C543.593 60.5913 543.313 60.5492 543.049 60.4534C542.785 60.3576 542.543 60.21 542.337 60.0193C542.131 59.8286 541.966 59.5987 541.85 59.343C541.734 59.0873 541.671 58.811 541.663 58.5304C541.678 57.9604 541.913 57.4182 542.318 57.0172C542.724 56.6161 543.268 56.3873 543.838 56.3784C544.119 56.3627 544.4 56.4036 544.665 56.4988C544.929 56.594 545.172 56.7415 545.378 56.9325C545.584 57.1235 545.75 57.3541 545.865 57.6106C545.981 57.867 546.043 58.1441 546.049 58.4252Z" fill="#263238"/>
<path d="M548.622 55.6416C548.341 55.9223 546.704 54.6358 544.353 54.5773C542.002 54.5189 540.224 55.6533 539.979 55.3609C539.733 55.0685 540.143 54.7177 540.914 54.1914C541.956 53.5136 543.181 53.1746 544.423 53.2206C545.648 53.2455 546.835 53.6546 547.815 54.3902C548.528 54.9867 548.751 55.513 548.622 55.6416Z" fill="#263238"/>
<path d="M522.95 58.1912C522.938 58.7633 522.704 59.3085 522.299 59.712C521.893 60.1155 521.347 60.346 520.774 60.3549C520.494 60.3691 520.214 60.327 519.95 60.2312C519.686 60.1354 519.444 59.9878 519.238 59.7971C519.032 59.6064 518.866 59.3765 518.751 59.1208C518.635 58.8651 518.571 58.5888 518.564 58.3082C518.573 57.7363 518.806 57.1907 519.213 56.7884C519.619 56.3862 520.167 56.1592 520.739 56.1562C521.019 56.1421 521.298 56.1838 521.561 56.2789C521.824 56.3739 522.066 56.5205 522.272 56.7099C522.477 56.8994 522.643 57.128 522.76 57.3823C522.876 57.6367 522.941 57.9117 522.95 58.1912Z" fill="#263238"/>
<path d="M525.395 55.4311C525.114 55.7001 523.488 54.4253 521.126 54.3668C518.763 54.3083 517.009 55.4428 516.752 55.1504C516.494 54.858 516.927 54.5071 517.699 53.9808C518.739 53.299 519.965 52.9558 521.208 52.9984C522.433 53.0233 523.619 53.4324 524.599 54.168C525.301 54.7878 525.535 55.3141 525.395 55.4311Z" fill="#263238"/>
<path d="M533.488 73.1849C534.74 72.8233 536.033 72.6267 537.336 72.6002C537.944 72.6002 538.505 72.4481 538.634 72.0388C538.701 71.4154 538.574 70.7866 538.271 70.2377L536.622 65.5595C534.283 58.9515 532.681 53.5247 532.95 53.4311C533.219 53.3376 535.289 58.624 537.628 65.232C538.189 66.8577 538.716 68.4132 539.219 69.9102C539.562 70.64 539.648 71.4642 539.464 72.2493C539.37 72.4589 539.229 72.6444 539.053 72.7922C538.877 72.94 538.67 73.0462 538.447 73.1031C538.11 73.1837 537.764 73.223 537.418 73.22C536.111 73.3722 534.791 73.3604 533.488 73.1849Z" fill="#263238"/>
<path d="M534.342 101.161C526.285 101.067 518.413 98.7344 511.605 94.4241C511.605 94.4241 516.833 106.33 534.002 105.196L534.342 101.161Z" fill="#EB996E"/>
<path d="M532.33 78.8222C531.897 78.2453 531.324 77.7881 530.665 77.4935C530.006 77.1989 529.283 77.0766 528.564 77.1381C528.041 77.1704 527.53 77.3084 527.062 77.5436C526.593 77.7787 526.177 78.1063 525.839 78.5064C525.513 78.8908 525.312 79.3659 525.264 79.8677C525.216 80.3695 525.323 80.874 525.57 81.3134C525.939 81.7468 526.428 82.0605 526.976 82.2147C527.524 82.3688 528.105 82.3563 528.646 82.1788C529.771 81.8139 530.812 81.2296 531.71 80.4596C531.983 80.277 532.22 80.0473 532.412 79.7813C532.501 79.6523 532.549 79.4994 532.549 79.3427C532.549 79.186 532.501 79.033 532.412 78.9041" fill="#EB996E"/>
<path d="M526.494 74.6235C526.88 74.6235 526.81 77.1732 528.95 79.0561C531.09 80.9391 533.827 80.7286 533.839 81.0912C533.839 81.2432 533.219 81.5707 532.061 81.5707C530.561 81.5422 529.118 80.9922 527.979 80.0152C526.888 79.074 526.208 77.7435 526.085 76.3077C526.014 75.2317 526.318 74.6001 526.494 74.6235Z" fill="#263238"/>
<path d="M526.248 46.2033C526.003 46.8349 523.652 46.4723 520.869 46.7296C518.085 46.9869 515.828 47.6769 515.477 47.0922C515.325 46.8115 515.734 46.215 516.646 45.6185C517.87 44.8754 519.253 44.4344 520.681 44.332C522.101 44.2061 523.531 44.4144 524.857 44.9402C525.874 45.3846 526.377 45.8992 526.248 46.2033Z" fill="#263238"/>
<path d="M547.944 48.7763C547.511 49.3026 545.897 48.7062 543.944 48.6243C541.991 48.5424 540.318 48.8816 539.956 48.3085C539.792 48.0395 540.073 47.5015 540.81 47.022C541.797 46.437 542.937 46.1601 544.083 46.2267C545.229 46.2934 546.329 46.7007 547.242 47.3963C547.921 47.9693 548.131 48.5307 547.944 48.7763Z" fill="#263238"/>
<path d="M518.623 28.4027C523.196 34.4844 518.436 43.0923 513.173 48.5775C507.91 54.0627 501.477 60.4368 502.916 67.8986C504.588 76.565 516.424 82.1087 514.67 90.7517C514.027 93.8978 511.535 96.5995 511.524 99.8041C511.524 105.652 519.021 108.435 521.184 113.839C524.155 121.23 516.003 128.599 515.874 136.563C515.804 141.078 518.366 145.3 518.506 149.814C518.787 159.066 507.84 165.849 498.857 163.568C489.875 161.288 483.735 152.504 481.805 143.464C479.876 134.423 482.823 121.686 484.273 112.541L468.718 116.154C465.817 113.383 469.782 110.447 470.437 106.506C472.075 96.5995 478.624 88.2138 481.677 78.6702C484.378 70.3313 484.402 61.3959 485.583 52.706C486.764 44.0162 489.454 34.9639 496.109 29.2214C502.764 23.4788 514.237 22.7888 519.605 29.7243" fill="#263238"/>
<path d="M483.747 56.5071C486.013 56.8666 488.316 56.9373 490.6 56.7176C496.098 55.9306 501.259 53.5939 505.477 49.981C509.639 46.3064 513.292 42.094 516.342 37.455C517.512 35.7592 518.471 34.344 519.196 33.268C519.521 32.7402 519.889 32.2396 520.295 31.771C520.044 32.3388 519.743 32.8829 519.395 33.3967C518.787 34.4259 517.874 35.8995 516.705 37.6889C513.731 42.4469 510.078 46.7455 505.863 50.4488C501.569 54.1353 496.278 56.4636 490.659 57.1387C488.959 57.312 487.243 57.2529 485.559 56.9632C485.106 56.8912 484.657 56.7936 484.214 56.6708C483.899 56.6007 483.735 56.5305 483.747 56.5071Z" fill="#455A64"/>
<path d="M504.027 58.7994C503.301 59.5173 502.459 60.1065 501.536 60.5421C499.35 61.722 496.975 62.5135 494.518 62.8812C492.072 63.2367 489.582 63.1615 487.162 62.6589C486.154 62.5028 485.178 62.1828 484.273 61.7116C484.273 61.6064 485.443 61.9572 487.244 62.2379C492.022 62.9808 496.914 62.2634 501.278 60.1795C502.998 59.3608 503.957 58.7176 504.027 58.7994Z" fill="#455A64"/>
<path d="M559.627 47.3027C557.754 47.3273 555.91 46.8348 554.299 45.8795C552.687 44.9241 551.371 43.5429 550.493 41.8876C551.735 43.2018 553.116 44.3781 554.61 45.3963C556.208 46.2131 557.89 46.8524 559.627 47.3027Z" fill="#455A64"/>
<path d="M558.528 53.092C557.469 53.4205 556.34 53.4525 555.263 53.1845C554.187 52.9164 553.205 52.3586 552.423 51.5716C552.529 51.4312 553.733 52.1914 555.406 52.5891C557.078 52.9867 558.505 52.8815 558.528 53.092Z" fill="#455A64"/>
<path d="M485.033 60.2263C484.437 58.402 484.269 56.4652 484.542 54.5656C484.614 52.6459 485.118 50.7672 486.015 49.0687C486.191 49.1272 485.407 51.5365 485.15 54.6124C484.893 57.6883 485.208 60.2029 485.033 60.2263Z" fill="#489D59"/>
<path d="M323.365 257.694C322.195 257.437 312.769 301.786 314.009 319.037C315.248 336.288 323.365 396.228 323.365 396.228H420.356C420.356 396.228 432.485 337.926 430.321 320.265C428.157 302.605 416.637 256.174 416.637 256.174L323.365 257.694Z" fill="#263238"/>
<path d="M310.969 173.849L297.109 111.453L296.303 101.114C296.303 101.114 293.133 77.9568 293.11 75.6995C293.11 73.0797 291.823 72.4599 290.852 72.5417C289.355 72.6587 288.314 74.5183 288.256 76.7638C288.256 77.5357 288.478 89.7927 288.478 89.7927C287.751 88.6434 286.946 87.5453 286.069 86.5062C284.233 84.2373 279.964 82.9976 275.543 83.1613C271.122 83.325 269.976 83.7812 269.964 85.5004C269.98 85.8213 270.066 86.1348 270.218 86.418C270.37 86.7012 270.583 86.9471 270.841 87.1378C271.652 87.8045 272.682 88.1463 273.73 88.0968C280.747 87.898 282.654 91.6055 282.654 91.6055L282.759 92.9505C282.759 92.9505 278.467 89.9564 275.098 91.278C274.601 91.4759 274.144 91.7656 273.753 92.1318C272.803 92.1483 271.873 92.4116 271.054 92.896C270.236 93.3804 269.558 94.0692 269.086 94.8948C268.614 95.7204 268.365 96.6544 268.363 97.6053C268.361 98.5562 268.607 99.4912 269.075 100.319C269.271 100.737 269.587 101.089 269.982 101.328C270.378 101.567 270.836 101.684 271.297 101.664C271.765 101.514 272.188 101.249 272.525 100.892C272.72 100.72 272.927 100.564 273.145 100.424L273.964 104.178C273.964 104.178 276.303 112.482 276.853 116.213L280.642 178.094C280.765 180.131 281.292 182.122 282.192 183.953C283.093 185.784 284.349 187.417 285.887 188.757C287.426 190.097 289.215 191.117 291.152 191.758C293.089 192.4 295.134 192.649 297.168 192.491C299.361 192.321 301.491 191.682 303.415 190.617C305.339 189.552 307.012 188.086 308.321 186.318C309.629 184.55 310.543 182.522 311 180.371C311.457 178.22 311.446 175.996 310.969 173.849Z" fill="#FFBE9D"/>
<path d="M295.085 110.622C294.427 110.727 293.751 110.621 293.157 110.318C292.562 110.016 292.079 109.533 291.776 108.938C291.062 107.769 290.758 106.471 290.138 105.301C288.279 101.792 283.846 100.132 282.162 96.5293C281.928 96.0264 281.788 95.3598 282.232 94.9972C282.676 94.6346 283.226 94.9153 283.671 95.1609L295.284 101.43" fill="#FFBE9D"/>
<path d="M295.284 101.43C294.935 101.106 294.541 100.834 294.114 100.623C293.331 100.143 292.173 99.4532 290.746 98.6696L285.705 95.8627L284.243 95.0557C283.7 94.6398 283.015 94.4548 282.337 94.5411C282.126 94.6117 281.942 94.7446 281.808 94.922C281.675 95.0995 281.598 95.3132 281.588 95.5352C281.57 95.9006 281.638 96.2651 281.787 96.5995C282.063 97.1895 282.404 97.7466 282.805 98.2602C284.419 100.319 286.5 101.593 288.009 103.091C288.739 103.773 289.362 104.561 289.857 105.43C290.313 106.237 290.594 107.102 290.933 107.862C291.152 108.504 291.508 109.091 291.977 109.582C292.445 110.073 293.015 110.456 293.646 110.704C294.594 110.985 295.12 110.704 295.097 110.634C294.636 110.654 294.175 110.587 293.74 110.435C293.178 110.159 292.68 109.769 292.278 109.289C291.875 108.81 291.576 108.253 291.401 107.652C291.106 106.796 290.766 105.957 290.383 105.137C289.88 104.2 289.233 103.348 288.465 102.611C286.921 101.032 284.863 99.7222 283.378 97.8041C283.014 97.3419 282.704 96.8397 282.454 96.3071C282.231 95.8159 282.255 95.3013 282.547 95.2428C282.84 95.1843 283.389 95.4299 283.881 95.6989L285.354 96.4825L290.465 99.1491C291.927 99.8976 293.12 100.494 293.974 100.892C294.384 101.129 294.825 101.31 295.284 101.43Z" fill="#EB996E"/>
<path d="M282.981 93.0206C282.893 92.1863 282.608 91.3847 282.15 90.6815C281.617 89.9576 280.867 89.4212 280.01 89.1494C278.932 88.8347 277.811 88.6887 276.689 88.7167C275.513 88.7464 274.337 88.6562 273.18 88.4477C272.224 88.2632 271.333 87.8318 270.595 87.1963C270.344 86.9703 270.148 86.6889 270.024 86.3742C269.9 86.0595 269.852 85.7203 269.882 85.3834C269.892 85.1286 269.973 84.8816 270.116 84.67C270.116 84.67 270.116 84.9156 270.116 85.3484C270.122 85.6456 270.193 85.9378 270.325 86.2046C270.456 86.4713 270.644 86.706 270.876 86.8922C271.59 87.4463 272.429 87.8159 273.32 87.9682C274.438 88.1385 275.57 88.209 276.7 88.1787C277.87 88.1533 279.036 88.3233 280.15 88.6816C281.106 88.985 281.931 89.6034 282.49 90.4359C282.837 90.9902 283.046 91.6201 283.098 92.2721C283.063 92.775 282.981 93.0206 282.981 93.0206Z" fill="#EB996E"/>
<path d="M288.29 75.8983C288.385 76.7056 288.409 77.5197 288.36 78.331V84.1788C288.36 86.3776 288.36 88.3658 288.442 90.0266C288.518 90.8357 288.518 91.6502 288.442 92.4593C288.25 91.67 288.144 90.8621 288.127 90.05C288.01 88.5413 287.916 86.4594 287.893 84.2022C287.869 81.945 287.893 79.8281 288.033 78.3544C288.028 77.5288 288.115 76.7051 288.29 75.8983Z" fill="#EB996E"/>
<path d="M280.232 95.8042C279.984 95.7462 279.744 95.6557 279.519 95.5352C279.227 95.3935 278.909 95.3142 278.585 95.3021C278.261 95.29 277.937 95.3455 277.636 95.465C277.449 95.5644 277.293 95.7127 277.184 95.8939C277.075 96.0752 277.017 96.2826 277.016 96.4942C276.994 97.0238 277.037 97.5542 277.145 98.0731C277.296 98.7276 277.2 99.4148 276.876 100.003C276.664 100.3 276.385 100.544 276.063 100.715C275.74 100.885 275.381 100.978 275.016 100.985C274.658 100.988 274.304 100.918 273.974 100.779C273.644 100.641 273.346 100.436 273.098 100.178C272.628 99.7179 272.306 99.1273 272.174 98.4825C272.021 97.4433 272.021 96.3872 272.174 95.3481C272.257 94.6447 272.459 93.9605 272.771 93.3247C273.016 92.8803 273.25 92.7049 273.262 92.7282C273.273 92.7516 273.121 92.9622 272.946 93.4066C272.706 94.0448 272.56 94.7146 272.513 95.3948C272.409 96.396 272.436 97.4066 272.595 98.4006C272.709 98.9657 273.005 99.4777 273.438 99.858C273.872 100.238 274.418 100.466 274.993 100.506C275.281 100.499 275.564 100.427 275.82 100.293C276.076 100.159 276.297 99.9675 276.466 99.7339C276.729 99.2432 276.807 98.6751 276.689 98.1316C276.591 97.5719 276.564 97.0022 276.607 96.4357C276.625 96.1657 276.715 95.9055 276.868 95.6816C277.02 95.4577 277.228 95.278 277.472 95.1609C277.817 95.0262 278.188 94.975 278.556 95.0116C278.924 95.0482 279.278 95.1715 279.589 95.3714C280.033 95.6053 280.256 95.7808 280.232 95.8042Z" fill="#EB996E"/>
<path d="M273.297 99.8041C273.297 99.8041 273.39 100.061 273.226 100.494C273.11 100.803 272.922 101.079 272.678 101.301C272.434 101.522 272.141 101.683 271.823 101.769C271.344 101.88 270.845 101.866 270.373 101.726C269.902 101.587 269.474 101.328 269.133 100.974C268.325 100.098 267.882 98.9481 267.893 97.7573C267.883 96.5864 268.238 95.4413 268.911 94.4826C269.459 93.7063 270.207 93.0922 271.074 92.7049C271.648 92.4375 272.267 92.2827 272.899 92.2487C273.13 92.214 273.367 92.2341 273.589 92.3072C272.781 92.4327 271.994 92.6688 271.25 93.0089C270.467 93.4116 269.795 94.0023 269.297 94.7282C268.706 95.6269 268.396 96.6817 268.408 97.7573C268.391 98.8226 268.771 99.8561 269.472 100.658C269.763 100.978 270.13 101.217 270.54 101.355C270.949 101.492 271.387 101.522 271.811 101.441C272.09 101.373 272.352 101.248 272.58 101.073C272.807 100.897 272.996 100.676 273.133 100.424C273.25 100.05 273.25 99.8041 273.297 99.8041Z" fill="#EB996E"/>
<path d="M281.811 107.897C282.193 107.789 282.598 107.789 282.981 107.897C283.98 108.098 284.882 108.63 285.542 109.406L285.133 109.535C285.183 108.984 285.269 108.437 285.39 107.897C285.725 105.992 286.579 104.215 287.858 102.763C287.009 104.435 286.339 106.191 285.858 108.003C285.741 108.552 285.659 109.09 285.6 109.582L285.53 110.131L285.191 109.71C284.583 108.976 283.768 108.442 282.852 108.178C282.5 108.105 282.152 108.012 281.811 107.897Z" fill="#EB996E"/>
<path d="M281.354 87.0091C281.471 87.0091 281.015 87.9448 279.939 88.4126C278.863 88.8804 277.904 88.6582 277.939 88.5295C277.974 88.4009 278.817 88.4009 279.741 87.9682C280.664 87.5354 281.249 87.0091 281.354 87.0091Z" fill="#EB996E"/>
<path d="M422.157 120.856C427.233 120.856 439.432 135.277 441.56 157.182C442.531 167.217 447.56 208.304 449.993 228.058C450.42 231.556 449.9 235.105 448.489 238.334C447.078 241.564 444.827 244.356 441.97 246.42C428.836 255.952 402.556 270.98 367.586 270.536L346.37 252.77L415.14 223.847V222.28L418.134 218.994L409.55 166.364C409.55 166.364 401.573 120.856 422.157 120.856Z" fill="#489D59"/>
<path d="M404.229 28.2857C404.486 35.4083 413.971 39.7123 413.854 46.8349C413.854 49.8991 411.901 52.6827 411.515 55.6767C411.012 59.7468 413.293 63.5946 414.135 67.6179C415.878 75.91 411.059 84.6466 403.913 89.1845C396.767 93.7224 387.785 94.5879 379.353 93.43" fill="#263238"/>
<path d="M346.932 26.5431C347.213 30.3675 344.686 33.7709 342.148 36.6363C339.61 39.5017 336.768 42.4841 336.219 46.2852C335.248 53.0101 341.833 59.2439 340.476 65.8986C339.739 69.4658 336.827 72.3312 336.301 75.9334C335.774 79.5357 337.669 82.8221 339.985 85.477C342.3 88.1319 344.979 87.7343 347.002 90.5997C349.378 93.8215 352.402 96.5106 355.879 98.4942C363.259 102.529 372.101 96.6931 375.656 95.6405" fill="#263238"/>
<path d="M405.655 32.3792C405.749 28.8705 402.544 26.239 399.316 24.9759C396.088 23.7128 392.509 23.2215 389.632 21.2918C387.083 19.5725 385.375 16.9059 383.223 14.7189C380.565 12.0135 377.235 10.0656 373.574 9.07564C369.913 8.08568 366.054 8.08951 362.396 9.08674C358.737 10.084 355.41 12.0385 352.757 14.7491C350.105 17.4597 348.223 20.8283 347.306 24.508C346.066 29.4436 346.908 35.2797 350.815 38.5427C355.329 42.3555 362.019 41.5017 367.797 40.3205C373.574 39.1392 380.136 37.9813 384.966 41.373C387.878 43.4198 389.55 46.753 391.328 49.829C393.106 52.9049 395.34 56.0627 398.708 57.2205C402.076 58.3784 406.649 56.3785 406.778 52.823" fill="#263238"/>
<path d="M359.586 113.102C359.586 105.149 359.492 97.3948 359.492 97.4416C359.492 97.4883 346.861 95.313 344.288 78.8222C343.013 70.6353 343.446 57.1854 344.171 46.1916C344.814 36.3089 351.387 24.1922 361.247 25.2565L391.994 33.0926C393.427 33.2569 394.748 33.9449 395.705 35.0242C396.661 36.1036 397.185 37.4983 397.175 38.9403L394.357 113.605C394.186 118.159 392.233 122.464 388.919 125.592C385.605 128.72 381.194 130.422 376.638 130.329C372.112 130.244 367.798 128.397 364.613 125.179C361.428 121.962 359.625 117.629 359.586 113.102Z" fill="#FFBE9D"/>
<path d="M349.388 55.6183C349.385 56.169 349.595 56.6996 349.974 57.0987C350.354 57.4978 350.873 57.7344 351.423 57.7586C351.693 57.7808 351.964 57.7489 352.221 57.6645C352.478 57.5801 352.716 57.4451 352.919 57.2673C353.123 57.0896 353.29 56.8728 353.408 56.6297C353.527 56.3867 353.596 56.1223 353.61 55.8522C353.614 55.3015 353.404 54.7708 353.024 54.3717C352.645 53.9726 352.125 53.7361 351.575 53.7119C351.306 53.6912 351.035 53.7243 350.779 53.8093C350.523 53.8943 350.286 54.0295 350.082 54.2069C349.879 54.3843 349.713 54.6005 349.593 54.8428C349.474 55.0851 349.405 55.3487 349.388 55.6183Z" fill="#263238"/>
<path d="M347.06 53.1972C347.317 53.4662 348.92 52.285 351.2 52.2967C353.481 52.3084 355.142 53.4663 355.387 53.1739C355.633 52.8815 355.235 52.554 354.51 52.0043C353.533 51.3126 352.363 50.9444 351.165 50.9517C349.981 50.949 348.826 51.3216 347.867 52.016C347.165 52.5774 346.931 53.092 347.06 53.1972Z" fill="#263238"/>
<path d="M371.481 56.1913C371.474 56.7417 371.684 57.2728 372.064 57.6706C372.444 58.0685 372.965 58.3016 373.516 58.3199C373.784 58.3422 374.055 58.3106 374.311 58.2269C374.567 58.1433 374.804 58.0093 375.008 57.8328C375.212 57.6563 375.378 57.4409 375.497 57.1991C375.617 56.9574 375.686 56.6943 375.703 56.4252C375.706 55.8745 375.496 55.3439 375.117 54.9447C374.737 54.5456 374.218 54.3091 373.668 54.2849C373.398 54.2626 373.127 54.2946 372.87 54.379C372.613 54.4634 372.375 54.5984 372.171 54.7762C371.968 54.9539 371.801 55.1707 371.683 55.4138C371.564 55.6568 371.495 55.9212 371.481 56.1913Z" fill="#263238"/>
<path d="M369.422 53.6651C369.68 53.9458 371.282 52.7645 373.563 52.7762C375.843 52.7879 377.504 53.9458 377.75 53.6534C377.995 53.361 377.609 53.0218 376.872 52.4838C375.89 51.8032 374.723 51.4399 373.527 51.4429C372.345 51.4368 371.19 51.8052 370.229 52.4955C369.528 53.092 369.294 53.5481 369.422 53.6651Z" fill="#263238"/>
<path d="M361.131 70.5184C359.932 70.1427 358.69 69.9188 357.435 69.8517C356.85 69.7816 356.265 69.6646 356.207 69.2787C356.156 68.6758 356.29 68.0717 356.593 67.5477L358.324 63.1268C360.721 56.8346 362.464 51.6651 362.207 51.5716C361.949 51.478 359.797 56.4954 357.4 62.7876L355.751 67.2436C355.413 67.9329 355.322 68.7175 355.494 69.4658C355.576 69.6726 355.706 69.8574 355.872 70.0056C356.039 70.1538 356.238 70.2612 356.453 70.3196C356.772 70.4114 357.103 70.4587 357.435 70.4599C358.66 70.633 359.901 70.6526 361.131 70.5184Z" fill="#263238"/>
<path d="M359.493 97.4416C367.256 97.5719 374.904 95.5477 381.586 91.5938C381.399 91.5938 375.504 103.044 359.704 101.324L359.493 97.4416Z" fill="#EB996E"/>
<path d="M362.078 76.0036C362.511 75.4604 363.076 75.0367 363.718 74.7726C364.361 74.5086 365.06 74.413 365.75 74.4949C366.253 74.5394 366.741 74.6857 367.186 74.9249C367.63 75.1642 368.021 75.4914 368.335 75.8866C368.643 76.2642 368.826 76.7287 368.857 77.2152C368.889 77.7017 368.767 78.1859 368.51 78.6C368.143 79.0052 367.663 79.2925 367.132 79.4257C366.602 79.5589 366.043 79.5321 365.528 79.3485C364.459 78.9798 363.473 78.4035 362.627 77.6527C362.369 77.4688 362.147 77.2389 361.972 76.9743C361.886 76.8508 361.84 76.7038 361.84 76.5533C361.84 76.4027 361.886 76.2558 361.972 76.1322" fill="#489D59"/>
<path d="M367.82 72.109C367.446 72.109 367.434 74.5534 365.317 76.3077C363.2 78.062 360.569 77.7813 360.557 78.1205C360.557 78.2725 361.142 78.6 362.253 78.6351C363.7 78.657 365.107 78.1683 366.229 77.255C367.304 76.3805 367.996 75.1222 368.159 73.7464C368.265 72.7055 367.984 72.0973 367.82 72.109Z" fill="#263238"/>
<path d="M368.358 49.6886C368.581 50.2968 370.85 50.0161 373.516 50.3435C376.183 50.671 378.346 51.3962 378.709 50.8465C378.861 50.5775 378.487 50.0044 377.621 49.3962C376.459 48.6649 375.146 48.2053 373.781 48.0514C372.417 47.8975 371.035 48.0533 369.738 48.5073C368.803 48.905 368.358 49.3845 368.358 49.6886Z" fill="#263238"/>
<path d="M347.903 46.6127C348.313 47.1273 349.88 46.6127 351.763 46.6127C353.646 46.6127 355.271 46.9635 355.611 46.4255C355.774 46.1682 355.517 45.6419 354.827 45.1507C353.894 44.5527 352.8 44.2548 351.693 44.2969C350.584 44.3142 349.508 44.6782 348.617 45.3378C347.95 45.8291 347.728 46.3554 347.903 46.6127Z" fill="#263238"/>
<path d="M398.965 88.2488C394.427 89.1611 394.03 86.8571 390.638 83.711C388.953 82.1169 387.664 80.1508 386.874 77.9699C386.084 75.7889 385.815 73.4534 386.088 71.1499C386.591 67.0916 388.778 62.963 387.375 59.1503C385.515 54.0744 378.416 52.5189 376.533 47.4547C375.434 44.5191 376.416 41.0806 375.176 38.1918C374.007 35.4902 371.165 33.923 368.393 32.9288C365.621 31.9347 362.639 31.233 360.311 29.4202C357.984 27.6074 356.534 24.1922 358.031 21.6543C370.344 23.1306 382.437 26.0714 394.053 30.4143C396.755 31.4201 399.573 32.6247 401.164 35.0106C402.754 37.3965 402.766 40.8584 402.626 43.8525L400.556 88.2956" fill="#263238"/>
<path d="M409.292 54.6124C409.56 51.8749 410.712 49.299 412.574 47.2748C414.436 45.2505 416.907 43.8881 419.613 43.3937C422.318 42.8994 425.111 43.3 427.569 44.535C430.027 45.77 432.015 47.7722 433.233 50.2383C435.572 54.9165 434.73 60.5538 432.59 65.2905C430.052 70.9043 424.847 76.0387 418.684 75.758C412.836 75.5007 408.216 70.4014 406.544 64.846C404.871 59.2906 405.55 53.3376 406.24 47.5717" fill="#263238"/>
<path d="M412.567 77.1966C412.922 76.9465 413.214 76.6184 413.421 76.2375C414.073 75.243 414.496 74.1167 414.661 72.9394C414.891 71.2077 414.84 69.4501 414.509 67.7348C414.17 65.7934 413.515 63.7584 413.047 61.6064C412.516 59.6165 412.393 57.54 412.684 55.5013C413.024 53.6651 413.854 52.1096 414.263 50.6593C414.632 49.5232 414.664 48.3048 414.357 47.1507C414.276 46.7037 414.055 46.294 413.725 45.9811C413.667 45.9811 413.924 46.4021 414.088 47.1507C414.27 48.2627 414.161 49.4029 413.772 50.4605C413.089 52.044 412.507 53.669 412.029 55.3259C411.68 57.4521 411.783 59.6283 412.334 61.7116C412.825 63.9104 413.503 65.9337 413.854 67.805C414.213 69.452 414.312 71.1449 414.146 72.8224C413.958 74.3812 413.418 75.8768 412.567 77.1966Z" fill="#455A64"/>
<path d="M412.801 57.396C413.446 58.4017 414.309 59.2492 415.327 59.8754C417.7 61.5548 420.523 62.4799 423.43 62.53C426.336 62.58 429.19 61.7528 431.619 60.1561C432.656 59.5814 433.551 58.7822 434.239 57.817C434.145 57.7234 433.21 58.7059 431.35 59.7702C428.956 61.1811 426.218 61.9018 423.439 61.8522C420.661 61.8027 417.95 60.9849 415.608 59.4895C413.807 58.3199 412.894 57.3141 412.801 57.396Z" fill="#455A64"/>
<path d="M413.62 59.9807C413.911 60.9246 414.384 61.8026 415.011 62.5654C416.424 64.4988 418.209 66.1294 420.263 67.3606C422.316 68.5959 424.594 69.4109 426.964 69.7582C427.933 69.9541 428.931 69.9541 429.9 69.7582C428.958 69.5378 428.006 69.366 427.046 69.2436C424.787 68.7591 422.623 67.9098 420.637 66.729C418.661 65.5373 416.897 64.0233 415.421 62.2496C414.286 60.893 413.725 59.9222 413.62 59.9807Z" fill="#455A64"/>
<path d="M409.468 82.7169C409.541 82.6568 409.604 82.5858 409.655 82.5063C409.817 82.298 409.966 82.0792 410.099 81.8514C410.636 80.9632 411.004 79.984 411.187 78.9626C411.5 77.3441 411.411 75.6737 410.93 74.0972C410.3 71.9789 408.941 70.1518 407.093 68.9395C405.129 67.5594 402.591 66.6004 400.965 64.4016C400.556 63.8534 400.266 63.2261 400.113 62.5596C399.96 61.8931 399.947 61.202 400.076 60.5304C400.407 59.063 400.885 57.6327 401.503 56.2615C402.148 54.6941 402.462 53.0103 402.426 51.3157C402.39 49.6211 402.004 47.9522 401.292 46.4138C400.544 44.7706 399.394 43.3426 397.947 42.2619C396.432 41.21 394.709 40.4924 392.895 40.1567C391.106 39.759 389.328 39.5134 387.679 38.9871C386.045 38.5628 384.541 37.7389 383.305 36.5895C382.205 35.4056 381.537 33.8849 381.41 32.2739C381.256 30.6598 380.994 29.0578 380.626 27.4787C379.901 24.5151 378.361 21.8132 376.182 19.6778C374.26 17.8137 371.809 16.5884 369.165 16.1691C366.992 15.8143 364.763 16.1498 362.791 17.1281C361.322 17.8844 360.061 18.9886 359.118 20.3444C358.525 21.1912 358.089 22.1381 357.832 23.1396C357.733 23.4861 357.678 23.8437 357.668 24.2039C357.984 22.8744 358.556 21.6191 359.352 20.5081C360.306 19.2318 361.554 18.2047 362.989 17.5141C364.889 16.6117 367.024 16.3255 369.095 16.6954C371.611 17.126 373.936 18.3132 375.761 20.0988C377.833 22.1747 379.293 24.7804 379.983 27.6307C380.33 29.1724 380.577 30.7352 380.72 32.309C380.883 34.0543 381.614 35.698 382.802 36.9872C384.119 38.2289 385.728 39.118 387.48 39.5719C389.211 40.0982 390.989 40.3321 392.743 40.7415C394.461 41.056 396.094 41.7252 397.538 42.7063C398.889 43.7179 399.963 45.0533 400.661 46.5893C401.338 48.0393 401.709 49.6138 401.749 51.2138C401.79 52.8138 401.499 54.4049 400.895 55.8872C400.265 57.3078 399.783 58.7892 399.456 60.3081C399.323 61.0623 399.347 61.8356 399.526 62.5801C399.706 63.3246 400.036 64.0243 400.497 64.6355C402.298 66.9746 404.918 67.922 406.813 69.2319C408.596 70.3608 409.921 72.0844 410.555 74.0972C411.044 75.6059 411.172 77.2082 410.93 78.7755C410.698 80.1705 410.202 81.5084 409.468 82.7169Z" fill="#455A64"/>
<path d="M408.369 36.7182C408.491 36.4827 408.559 36.223 408.568 35.958C408.63 35.1884 408.437 34.4196 408.018 33.7709C407.375 32.7312 406.41 31.9303 405.269 31.4903C403.735 31.0011 402.095 30.9485 400.533 31.3383C398.802 31.6657 397.024 32.3558 395.048 32.73C394.044 33.0102 392.993 33.0717 391.964 32.9102C390.934 32.7488 389.952 32.3683 389.083 31.7944C387.34 30.4611 386.463 28.1571 385.574 25.8647C384.669 23.4132 383.382 21.12 381.761 19.0696C378.616 15.0651 374.225 12.2251 369.282 10.9997C367.108 10.4979 364.842 10.5583 362.698 11.1751C360.813 11.7146 359.123 12.7867 357.832 14.2627C356.907 15.3298 356.296 16.6333 356.069 18.0274C355.842 19.4216 356.007 20.8515 356.546 22.1572C356.828 22.862 357.25 23.5024 357.786 24.0402C357.963 24.2361 358.168 24.4055 358.394 24.5431C357.72 23.8136 357.181 22.9701 356.803 22.052C356.407 20.9721 356.271 19.8142 356.405 18.672C356.565 17.1545 357.2 15.7262 358.218 14.5902C359.452 13.2156 361.05 12.2182 362.826 11.7131C364.875 11.1536 367.031 11.1214 369.095 11.6195C373.869 12.8427 378.104 15.61 381.142 19.4907C382.722 21.4791 383.977 23.7055 384.861 26.087C385.773 28.4261 386.674 30.7652 388.65 32.2973C389.605 32.9802 390.73 33.385 391.901 33.4669C392.983 33.5545 394.071 33.4796 395.129 33.2446C397.164 32.8119 398.931 32.0751 400.603 31.7593C402.072 31.3468 403.625 31.3468 405.094 31.7593C406.174 32.1414 407.105 32.8584 407.749 33.806C408.161 34.4054 408.385 35.1139 408.392 35.841C408.427 36.4141 408.322 36.7182 408.369 36.7182Z" fill="#455A64"/>
<path d="M423.572 121.09L394.334 113.652H359.481C359.481 113.652 341.411 114.693 331.411 123.569C328.888 126.075 327.006 129.152 325.926 132.54L310.441 167.989L302.488 123.546L274.676 127.499L279.121 203.965C279.912 211.897 283.205 219.372 288.524 225.309C293.843 231.246 300.913 235.338 308.71 236.993L324.558 219.169C326.394 233.683 328.008 246.127 328.172 245.964C328.558 245.578 414.812 240.35 414.812 240.35L406.076 210.83L423.572 121.09Z" fill="#489D59"/>
<path d="M327.821 188.761C327.477 188.442 327.182 188.076 326.944 187.673C326.24 186.595 325.714 185.41 325.388 184.164C324.421 180.052 324.677 175.747 326.125 171.779C327.692 167.1 329.739 163.229 330.885 160.27C331.47 158.796 331.903 157.58 332.172 156.761C332.278 156.312 332.435 155.877 332.639 155.463C332.615 155.927 332.537 156.386 332.405 156.832C332.195 157.697 331.821 158.937 331.236 160.446C330.183 163.463 328.195 167.463 326.651 171.989C325.25 175.862 324.939 180.045 325.751 184.082C326.218 185.731 326.915 187.306 327.821 188.761Z" fill="#263238"/>
<path d="M408.591 158.551C408.679 158.739 408.734 158.941 408.755 159.147C408.848 159.615 408.965 160.188 409.117 160.89C409.41 162.504 409.807 164.679 410.287 167.334C411.258 172.784 412.556 180.316 413.913 188.655C415.269 196.994 416.427 204.55 417.176 210.035C417.55 212.772 417.819 214.994 417.994 216.537C418.053 217.251 418.1 217.836 418.146 218.315C418.172 218.521 418.172 218.729 418.146 218.935C418.068 218.741 418.02 218.536 418.006 218.327C417.936 217.859 417.854 217.274 417.737 216.573C417.491 214.947 417.152 212.76 416.731 210.093C415.842 204.55 414.638 197.053 413.293 188.749C411.948 180.445 410.743 172.948 409.854 167.416C409.445 164.738 409.106 162.551 408.86 160.937C408.755 160.223 408.673 159.639 408.614 159.171C408.581 158.966 408.573 158.758 408.591 158.551Z" fill="#263238"/>
<path d="M309.635 189.93C309.623 188.843 309.689 187.756 309.834 186.679C310.009 184.667 310.208 181.907 310.29 178.843C310.372 175.778 310.29 172.995 310.29 170.995C310.203 169.909 310.203 168.818 310.29 167.732C310.562 168.791 310.715 169.878 310.746 170.972C310.965 173.593 311.04 176.225 310.968 178.854C310.902 181.488 310.691 184.115 310.337 186.725C310.225 187.817 309.99 188.892 309.635 189.93Z" fill="#263238"/>
<path d="M428.485 226.701C428.391 226.701 428.216 225.929 427.655 224.795C426.947 223.307 425.887 222.014 424.567 221.029C423.23 220.059 421.683 219.418 420.053 219.157C418.801 218.97 417.994 219.029 417.982 218.935C418.663 218.688 419.396 218.619 420.111 218.736C421.848 218.875 423.512 219.496 424.915 220.529C426.318 221.562 427.404 222.967 428.052 224.584C428.379 225.24 428.528 225.97 428.485 226.701Z" fill="#263238"/>
<path d="M422.064 230.151C421.16 228.8 420.143 227.528 419.023 226.35C417.763 225.321 416.413 224.409 414.988 223.625C416.648 223.97 418.183 224.759 419.429 225.908C420.676 227.058 421.586 228.524 422.064 230.151Z" fill="#263238"/>
<path d="M400.521 230.175C400.463 230.011 403.784 228.654 407.819 226.865C411.854 225.075 415.094 223.531 415.176 223.683C412.946 225.181 410.562 226.435 408.065 227.426C405.651 228.597 403.123 229.518 400.521 230.175Z" fill="#263238"/>
<path d="M286.781 180.866C286.781 180.866 303.576 260.852 303.576 259.799C303.576 258.747 388.322 263.437 403.491 264.103L406.649 263.331L430.578 241.309L403.059 239.051L393.211 182.761L286.781 180.866Z" fill="#E0E0E0"/>
<path d="M393.211 182.807C393.375 182.807 396.521 200.795 400.229 223.029C403.936 245.262 406.813 263.308 406.649 263.331C406.486 263.355 403.34 245.367 399.632 223.122C395.925 200.877 393.048 182.843 393.211 182.807Z" fill="#455A64"/>
<path d="M393.516 182.913C393.516 182.913 393.34 183.147 392.919 183.509C392.293 184.017 391.707 184.573 391.165 185.17C390.873 185.568 390.475 186.094 390.685 186.655C390.896 187.217 390.931 187.989 391.083 188.725C391.34 190.211 391.633 191.895 391.96 193.754C393.235 201.263 394.989 211.543 396.919 222.888C398.849 234.233 400.428 244.537 401.691 252.057C402.264 255.741 402.732 258.747 403.071 260.91C403.211 261.905 403.328 262.7 403.422 263.32C403.477 263.597 403.5 263.879 403.492 264.162C403.409 263.889 403.343 263.612 403.293 263.331C403.176 262.739 403.024 261.959 402.837 260.992C402.451 258.84 401.925 255.846 401.27 252.174C399.995 244.654 398.241 234.385 396.311 223.028C394.381 211.672 392.802 201.392 391.539 193.871C391.247 192.012 390.978 190.363 390.744 188.831C390.615 188.094 390.545 187.38 390.405 186.772C390.351 186.462 390.375 186.144 390.475 185.846C390.575 185.548 390.748 185.279 390.978 185.065C391.55 184.478 392.172 183.942 392.837 183.462C393.053 183.266 393.279 183.083 393.516 182.913Z" fill="#455A64"/>
<path d="M390.416 185.766C390.069 185.795 389.721 185.795 389.375 185.766H386.381L375.375 185.614L339.049 184.983L302.723 184.375L291.717 184.199L288.723 184.141C288.367 184.152 288.011 184.133 287.659 184.082C287.659 184.082 288.021 184.082 288.7 184.024H291.694C294.302 184.024 298.056 184.024 302.711 184.024C312.009 184.024 324.851 184.199 339.037 184.445C353.224 184.69 366.066 185.006 375.364 185.264L386.369 185.614L389.352 185.743C389.707 185.73 390.062 185.737 390.416 185.766Z" fill="#455A64"/>
<path d="M402.989 241.391C403.53 241.347 404.074 241.347 404.615 241.391L409.059 241.566C412.825 241.741 418.041 242.022 423.878 242.385H424.626L424.053 242.876C423.714 243.168 423.351 243.484 422.977 243.788C418.299 247.788 414.006 251.367 410.884 253.94L407.176 256.969C406.742 257.364 406.268 257.713 405.761 258.01C406.148 257.585 406.571 257.194 407.024 256.84L410.603 253.659C413.656 251.004 417.889 247.367 422.579 243.379C422.954 243.063 423.316 242.747 423.667 242.467L423.842 242.993C417.995 242.63 412.79 242.279 409.036 241.999L404.603 241.624C404.058 241.605 403.517 241.526 402.989 241.391Z" fill="#455A64"/>
<path d="M329.248 262.255L328.161 249.238C328.754 249.146 329.361 249.187 329.937 249.357C330.512 249.528 331.043 249.824 331.491 250.224C331.938 250.625 332.291 251.12 332.525 251.673C332.758 252.227 332.865 252.825 332.839 253.425V245.355C332.839 245.355 337.798 244.268 338.885 250.782C339.385 254.215 340.268 257.581 341.517 260.817L344.16 262.255L341.657 247.238C341.657 247.238 346.92 247.706 347.856 252.665C348.378 255.545 349.161 258.371 350.195 261.109L358.522 263.448C358.522 263.448 353.751 259.179 354.207 257.788C354.663 256.396 354.37 256.478 355.294 256.279C356.853 256.269 358.387 256.672 359.739 257.449C361.259 258.256 370.031 263.448 370.031 263.448V269.881C370.031 269.881 349.61 271.355 345.002 270.489L336.067 268.431C334.5 268.064 333.052 267.305 331.859 266.225C330.666 265.145 329.768 263.779 329.248 262.255Z" fill="#FFBE9D"/>
<path d="M348.756 219.473C348.816 220.564 348.558 221.649 348.015 222.597C347.471 223.546 346.665 224.316 345.693 224.816C344.721 225.316 343.625 225.523 342.538 225.414C341.45 225.305 340.418 224.883 339.565 224.2C338.712 223.516 338.075 222.601 337.731 221.564C337.387 220.526 337.351 219.412 337.626 218.354C337.902 217.297 338.478 216.341 339.284 215.604C340.091 214.867 341.094 214.378 342.172 214.198C343.744 214.028 345.319 214.487 346.554 215.475C347.788 216.464 348.58 217.902 348.756 219.473Z" fill="#FAFAFA"/>
<g opacity="0.4">
<path d="M418.088 218.596C421.554 217.414 425.332 217.53 428.719 218.923C430.397 219.637 431.868 220.76 432.999 222.191C434.129 223.621 434.881 225.313 435.187 227.11C435.328 227.943 435.268 228.797 435.011 229.601C434.876 230 434.652 230.363 434.357 230.663C434.061 230.963 433.701 231.192 433.304 231.332C432.635 231.452 431.945 231.359 431.332 231.065C430.719 230.771 430.214 230.292 429.889 229.695C429.271 228.493 428.766 227.236 428.38 225.941C427.512 223.826 426.051 222.007 424.173 220.704C422.295 219.401 420.08 218.669 417.795 218.596L418.357 218.748" fill="black"/>
</g>
<path d="M356.569 118.049C357.26 115.85 356.64 113.488 356.254 111.207C355.868 108.927 355.809 106.33 357.353 104.623C358.897 102.915 361.447 102.716 363.739 102.611L392.042 101.383C393.972 101.301 396.217 101.383 397.422 102.857C397.845 103.326 398.155 103.887 398.328 104.495C398.5 105.104 398.53 105.743 398.416 106.365C396.966 111.757 397.422 116.295 399.586 120.096" fill="#489D59"/>
<path d="M394.918 115.347C394.541 115.735 394.126 116.084 393.679 116.388C392.491 117.248 391.249 118.029 389.96 118.727C385.667 121.056 380.95 122.496 376.089 122.961C373.414 123.242 370.715 123.191 368.054 122.809C365.87 122.501 363.757 121.817 361.808 120.786C360.491 120.093 359.322 119.147 358.37 118.002C358.106 117.697 357.871 117.369 357.668 117.02C357.585 116.907 357.522 116.78 357.481 116.646C358.706 118.207 360.249 119.49 362.007 120.412C363.936 121.357 366.006 121.981 368.136 122.26C370.754 122.596 373.403 122.631 376.03 122.365C380.815 121.883 385.469 120.523 389.761 118.353C393.047 116.692 394.848 115.254 394.918 115.347Z" fill="#263238"/>
<path d="M375.598 123.067C375.25 122.056 375.004 121.014 374.861 119.956C374.487 118.014 374.007 115.277 373.516 112.353C373.27 110.88 373.048 109.476 372.838 108.155C372.601 106.992 372.641 105.79 372.955 104.646C373.211 103.859 373.737 103.188 374.44 102.751C374.689 102.577 374.991 102.494 375.294 102.517C375.294 102.517 375.001 102.634 374.569 102.95C373.996 103.42 373.587 104.058 373.399 104.775C373.148 105.872 373.148 107.011 373.399 108.108C373.621 109.418 373.855 110.821 374.112 112.295C374.604 115.266 375.013 117.956 375.282 119.92C375.484 120.957 375.59 122.01 375.598 123.067Z" fill="#263238"/>
<path d="M390.311 118.587C390.035 117.753 389.858 116.89 389.785 116.014C389.528 114.424 389.223 112.213 388.919 109.757C388.615 107.301 388.428 105.079 388.206 103.512C388.113 102.917 387.795 102.381 387.317 102.015C386.966 101.769 386.709 101.746 386.721 101.699C386.732 101.652 387.001 101.593 387.446 101.804C387.742 101.974 388 102.204 388.201 102.481C388.403 102.757 388.544 103.072 388.615 103.406C388.978 105.044 389.2 107.231 389.528 109.687C389.855 112.143 390.066 114.365 390.206 115.967C390.341 116.834 390.376 117.713 390.311 118.587Z" fill="#263238"/>
<path d="M363.376 102.634C362.643 103.036 361.996 103.576 361.469 104.225C360.945 104.956 360.589 105.795 360.429 106.681C360.248 107.779 360.217 108.896 360.335 110.003C360.546 112.412 360.756 114.611 360.85 116.201C360.95 117.06 360.95 117.927 360.85 118.786C360.594 117.957 360.437 117.102 360.382 116.236C360.171 114.657 359.902 112.482 359.68 110.049C359.555 108.879 359.607 107.696 359.832 106.541C360.032 105.583 360.461 104.688 361.084 103.933C361.35 103.564 361.692 103.257 362.088 103.033C362.484 102.809 362.923 102.673 363.376 102.634Z" fill="#263238"/>
<path d="M247.964 275.015C247.964 281.039 251.473 396.474 251.473 396.474L202.351 396.216L193.767 344.92L191.498 396.216H144.294L149.417 269.518L247.964 275.015Z" fill="#455A64"/>
<path d="M103.149 227.216L78.0503 189.79L96.6696 174.656L128.166 203.895C128.166 203.895 141.721 127.873 155.066 123.289L154.025 241.18C145.281 245.349 135.329 246.232 125.987 243.668C116.646 241.104 108.539 235.264 103.149 227.216Z" fill="#263238"/>
<path d="M82.0167 148.586L70.672 153.124L68.251 162.258L72.1573 177.463L81.3149 187.182L87.5019 182.071L87.8878 172.714L88.6363 167.486C88.6363 167.486 94.2268 165.732 94.3672 164.878C94.5075 164.024 93.6771 161.147 92.8234 161.019C91.9696 160.89 86.0984 163.065 86.0984 163.065C86.0984 163.065 93.0339 157.568 92.8467 156.68C92.6596 155.791 91.8994 153.545 90.5076 153.288C89.1159 153.031 77.9232 158.317 77.9232 158.317L76.0987 162.469L74.5081 155.838C74.5081 155.838 84.4844 153.112 82.0167 148.586Z" fill="#B78876"/>
<path d="M83.4419 170.048C83.4419 170.048 83.1612 169.65 83.0559 168.878C82.9473 167.909 83.0674 166.928 83.4066 166.014C83.7458 165.1 84.2947 164.278 85.0091 163.615C85.5705 163.124 85.9915 162.948 86.0383 163.007C85.1129 163.911 84.3999 165.01 83.9509 166.224C83.5018 167.437 83.328 168.735 83.4419 170.024V170.048Z" fill="#AA6550"/>
<path d="M78.0503 168.036C78.2681 167.057 78.4205 166.065 78.5064 165.065C78.5502 163.949 78.7429 162.844 79.0795 161.779C79.2961 161.122 79.6511 160.52 80.1204 160.013C80.6457 159.495 81.2758 159.097 81.9683 158.843C84.6817 157.861 87.1261 157.066 88.9155 156.504C89.8657 156.141 90.8488 155.871 91.8511 155.697C90.9579 156.174 90.0221 156.565 89.0558 156.867C87.3132 157.533 84.8571 158.411 82.1905 159.37C81.5696 159.59 81.0032 159.941 80.5297 160.399C80.108 160.84 79.7851 161.367 79.5824 161.943C79.2396 162.962 79.0159 164.018 78.9158 165.089C78.8879 166.13 78.5896 167.145 78.0503 168.036Z" fill="#AA6550"/>
<path d="M75.4543 165.989C75.2906 165.989 75.3257 164.96 75.5245 163.755C75.7233 162.551 76.0157 161.58 76.1794 161.615C76.3331 162.355 76.305 163.122 76.0976 163.849C75.8987 165.054 75.6064 166.013 75.4543 165.989Z" fill="#AA6550"/>
<path d="M228.83 101.477L218.889 98.0965L181.721 106.623L178.422 109.359L158.75 291.483C167.195 300.196 193.837 301.927 208.96 299.354L228.83 101.477Z" fill="#489D59"/>
<path d="M229.52 101.827L224.737 99.4883C224.737 99.4883 214.211 145.85 214.211 176.48C214.211 207.111 207.591 318.125 207.591 318.125L257.73 316.827V194.129L229.52 101.827Z" fill="#263238"/>
<path d="M158.75 319.915L139.745 314.359L146.376 224.596L145.125 159.522L155.066 123.265L178.645 108.693C178.645 108.693 160.049 309.108 158.75 319.915Z" fill="#263238"/>
<path d="M198.375 123.885C193.808 123.478 189.559 121.371 186.471 117.982C183.383 114.592 181.679 110.167 181.697 105.582V89.3015C181.697 89.3015 166.645 86.9623 166.493 71.9101C166.341 56.858 168.925 22.3327 168.925 22.3327C177.475 18.6577 186.851 17.3316 196.084 18.4912C205.318 19.6508 214.075 23.2541 221.45 28.929L223.684 30.6482L218.234 106.962C218.06 109.384 217.406 111.747 216.31 113.914C215.214 116.081 213.697 118.008 211.849 119.583C210.001 121.158 207.858 122.35 205.544 123.088C203.231 123.827 200.794 124.098 198.375 123.885Z" fill="#B78876"/>
<path d="M181.732 89.0792C188.678 89.2024 195.504 87.2607 201.345 83.5005C201.345 83.5005 196.667 94.3188 181.697 92.9622L181.732 89.0792Z" fill="#AA6550"/>
<path d="M221.858 46.2267C222.116 46.1214 232.186 43.1742 231.858 53.4546C231.531 63.735 221.274 61.2906 221.262 60.9982C221.25 60.7058 221.858 46.2267 221.858 46.2267Z" fill="#B78876"/>
<path d="M224.502 57.1971C224.502 57.1971 224.678 57.3258 224.97 57.4778C225.179 57.5775 225.405 57.6351 225.636 57.6471C225.867 57.6592 226.097 57.6255 226.315 57.548C227.415 57.1854 228.385 55.4896 228.491 53.6417C228.544 52.7595 228.4 51.8766 228.07 51.057C227.983 50.7342 227.819 50.4371 227.593 50.1907C227.367 49.9444 227.085 49.7561 226.771 49.6418C226.567 49.5749 226.346 49.5843 226.148 49.6682C225.95 49.752 225.789 49.9047 225.695 50.0979C225.543 50.3786 225.602 50.5891 225.555 50.6008C225.508 50.6125 225.333 50.4254 225.426 50.0044C225.496 49.7513 225.648 49.5288 225.859 49.3728C226 49.268 226.161 49.1932 226.332 49.153C226.503 49.1127 226.68 49.1079 226.853 49.1389C227.276 49.2259 227.668 49.42 227.994 49.7027C228.32 49.9853 228.567 50.347 228.713 50.7529C229.115 51.6604 229.295 52.6506 229.239 53.6417C229.11 55.7118 227.988 57.6182 226.479 58.0041C226.201 58.0755 225.91 58.0831 225.629 58.0264C225.347 57.9697 225.082 57.8501 224.853 57.6766C224.502 57.4544 224.502 57.2205 224.502 57.1971Z" fill="#AA6550"/>
<path d="M173.872 45.4782C173.865 46.0379 174.078 46.5779 174.465 46.9823C174.852 47.3868 175.382 47.6235 175.942 47.6418C176.216 47.6625 176.491 47.6285 176.751 47.5417C177.012 47.455 177.253 47.3172 177.46 47.1365C177.666 46.9559 177.835 46.7358 177.956 46.4892C178.077 46.2427 178.148 45.9745 178.164 45.7004C178.17 45.1407 177.957 44.6007 177.57 44.1962C177.183 43.7918 176.653 43.555 176.094 43.5367C175.82 43.5161 175.545 43.5501 175.284 43.6368C175.024 43.7236 174.783 43.8613 174.576 44.042C174.369 44.2227 174.201 44.4428 174.08 44.6893C173.959 44.9359 173.888 45.204 173.872 45.4782Z" fill="#263238"/>
<path d="M171.79 43.4899C172.059 43.7706 173.685 42.566 176.001 42.5777C178.316 42.5894 180.001 43.7472 180.258 43.4548C180.515 43.1624 180.106 42.8233 179.369 42.2853C178.368 41.5866 177.174 41.2186 175.954 41.2327C174.754 41.2323 173.584 41.6086 172.609 42.3087C171.872 42.8584 171.662 43.3613 171.79 43.4899Z" fill="#263238"/>
<path d="M196.597 46.4489C196.591 47.0086 196.804 47.5486 197.191 47.953C197.578 48.3575 198.108 48.5943 198.667 48.6126C198.941 48.6349 199.216 48.6023 199.476 48.5169C199.737 48.4315 199.977 48.2949 200.184 48.1152C200.391 47.9354 200.56 47.7161 200.682 47.4701C200.803 47.2242 200.873 46.9565 200.89 46.6828C200.893 46.1228 200.679 45.5832 200.293 45.1775C199.907 44.7719 199.379 44.5316 198.819 44.5074C198.546 44.4868 198.27 44.5208 198.01 44.6076C197.749 44.6943 197.509 44.8321 197.302 45.0128C197.095 45.1934 196.926 45.4135 196.805 45.66C196.684 45.9066 196.614 46.1748 196.597 46.4489Z" fill="#263238"/>
<path d="M194.515 43.9227C194.784 44.2034 196.41 42.9987 198.726 42.9987C201.041 42.9987 202.725 44.1683 202.983 43.8876C203.24 43.6069 202.831 43.256 202.094 42.718C201.093 42.0194 199.899 41.6513 198.679 41.6654C197.479 41.665 196.309 42.0413 195.334 42.7414C194.632 43.2911 194.387 43.794 194.515 43.9227Z" fill="#263238"/>
<path d="M186.129 61.0684C184.911 60.6862 183.65 60.4583 182.375 60.39C181.778 60.3315 181.205 60.2146 181.124 59.8052C181.072 59.1986 181.207 58.5907 181.509 58.0626C182.071 56.6357 182.679 55.127 183.264 53.5598C185.685 47.1623 187.439 41.8642 187.182 41.8058C186.925 41.7473 184.749 46.8232 182.328 53.2206C181.743 54.7995 181.159 56.3083 180.656 57.7468C180.283 58.4667 180.172 59.2931 180.34 60.0859C180.427 60.2922 180.559 60.4761 180.728 60.624C180.896 60.7718 181.095 60.8798 181.311 60.9397C181.638 61.0318 181.976 61.079 182.316 61.0801C183.583 61.2347 184.864 61.2308 186.129 61.0684Z" fill="#263238"/>
<path d="M193.919 34.8586C194.141 35.4902 196.457 35.1978 199.17 35.5252C201.884 35.8527 204.071 36.5895 204.433 36.0282C204.597 35.7475 204.211 35.1627 203.264 34.5545C202.086 33.8077 200.753 33.3394 199.367 33.1854C197.98 33.0313 196.577 33.1956 195.264 33.6657C194.317 34.075 193.825 34.5662 193.919 34.8586Z" fill="#263238"/>
<path d="M172.644 36.8001C173.041 37.3264 174.644 36.8001 176.55 36.8001C178.456 36.8001 180.059 37.1509 180.468 36.6012C180.632 36.3439 180.374 35.8176 179.661 35.3147C178.71 34.7157 177.602 34.4146 176.479 34.45C175.355 34.4855 174.268 34.8558 173.357 35.5136C172.679 36.0048 172.457 36.5428 172.644 36.8001Z" fill="#263238"/>
<path d="M161.615 12.8359C161.508 11.9018 161.64 10.9559 161.998 10.0865C162.356 9.21717 162.928 8.45289 163.662 7.86524C164.422 7.31424 165.353 7.05063 166.288 7.1213C167.224 7.19197 168.105 7.59235 168.773 8.2512C168.631 7.62306 168.622 6.97206 168.748 6.34041C168.874 5.70876 169.131 5.11055 169.502 4.58456C169.874 4.05857 170.352 3.61654 170.905 3.28713C171.459 2.95773 172.075 2.7483 172.715 2.67241C175.171 2.52037 177.264 4.36827 179.638 5.01152C182.003 5.50533 184.464 5.22229 186.656 4.20453C188.889 3.30397 190.971 2.06424 193.217 1.24555C197.974 -0.482718 203.22 -0.265798 207.818 1.84925C212.416 3.96429 215.995 7.80688 217.778 12.5435C221.064 11.5143 224.795 13.1867 226.842 15.9703C228.755 18.881 229.518 22.3994 228.982 25.8413C228.666 28.1486 228.089 30.4126 227.263 32.5897C227.263 32.7885 227.263 32.9756 227.263 33.1628C227.111 41.4432 226.175 51.1505 222.584 51.209C216.432 51.3026 217.906 39.7123 217.906 39.7123C210.351 36.8001 213.169 25.4904 211.275 23.7712C209.38 22.052 205.427 18.0638 189.638 26.1103C183.498 29.2447 175.334 29.1512 170.925 28.1337L170.527 28.0635H170.434L170.305 28.005C168.87 27.6513 167.5 27.0709 166.247 26.2858C164.769 25.4365 163.601 24.1376 162.914 22.5783C162.591 21.7981 162.501 20.9413 162.655 20.1112C162.808 19.2811 163.199 18.5131 163.779 17.9C162.581 16.4584 161.829 14.6984 161.615 12.8359Z" fill="#263238"/>
<path d="M184.164 68.1793C184.488 69.1127 184.936 69.9979 185.498 70.8108C185.788 71.213 186.16 71.5491 186.589 71.7971C187.018 72.0451 187.495 72.1992 187.989 72.2493C188.516 72.2493 189.034 72.1164 189.496 71.8629C189.958 71.6094 190.349 71.2435 190.632 70.7991C191.19 69.9005 191.448 68.848 191.369 67.7933C191.369 66.8343 190.889 65.6998 189.954 65.5946C189.548 65.5774 189.145 65.6661 188.784 65.8519L183.813 67.8635" fill="#AA6550"/>
<path d="M186.141 72.261C187.039 72.3231 187.94 72.2119 188.796 71.9335C189.659 71.5897 190.369 70.946 190.796 70.1207C191.022 69.6086 191.139 69.0549 191.139 68.495C191.139 67.9352 191.022 67.3815 190.796 66.8694C190.684 66.606 190.539 66.3583 190.363 66.1325C190.164 65.922 190.211 65.9337 189.989 65.9571C189.767 65.9805 189.462 66.1676 189.193 66.2729L188.386 66.6121C187.322 67.0331 186.363 67.4074 185.544 67.7114C184.693 68.1252 183.781 68.4015 182.843 68.5301C183.583 67.9395 184.412 67.4697 185.299 67.1384L188.059 65.8518L188.866 65.501C189.156 65.3527 189.457 65.2275 189.767 65.1267C190.004 65.04 190.265 65.04 190.503 65.1267C190.72 65.2162 190.91 65.3614 191.053 65.5478C191.586 66.2407 191.908 67.0724 191.981 67.9436C192.053 68.8147 191.873 69.6883 191.462 70.4599C190.922 71.4478 190.015 72.1832 188.936 72.5066C188.242 72.7223 187.504 72.7505 186.796 72.5885C186.351 72.4832 186.129 72.3078 186.141 72.261Z" fill="#263238"/>
<path d="M211.894 22.3794C211.952 21.7726 211.952 21.1617 211.894 20.5549C211.631 18.9179 210.803 17.4244 209.555 16.3328C207.67 14.7434 205.244 13.9431 202.783 14.099C199.768 14.299 196.802 14.9617 193.988 16.0638C192.495 16.5803 190.977 17.0214 189.439 17.3854C185.527 18.2427 181.462 18.0898 177.626 16.941C176 16.4593 174.431 15.8004 172.948 14.9762C172.546 14.7586 172.156 14.5205 171.779 14.2627C171.635 14.1865 171.505 14.0878 171.393 13.9703C171.393 13.9703 171.966 14.2978 173.018 14.8241C174.513 15.5859 176.08 16.197 177.696 16.6486C180.076 17.3037 182.54 17.5955 185.006 17.5141C186.459 17.4643 187.903 17.2802 189.322 16.9644C190.807 16.6252 192.304 16.1457 193.836 15.6428C196.693 14.5236 199.709 13.8644 202.772 13.6896C205.336 13.5421 207.856 14.4073 209.789 16.0989C211.083 17.2465 211.915 18.8266 212.128 20.5432C212.194 21.1652 212.114 21.7939 211.894 22.3794Z" fill="#455A64"/>
<path d="M223.59 47.8056C223.511 47.7086 223.444 47.6026 223.391 47.4898C223.274 47.2793 223.11 46.9518 222.923 46.5308C222.41 45.3253 222.018 44.0715 221.754 42.7882C221.34 40.8683 221.21 38.8981 221.368 36.9404C221.646 34.5727 222.091 32.2277 222.701 29.9231C223.298 27.6578 223.298 25.2763 222.701 23.011C222.42 22.0425 221.929 21.148 221.262 20.3912C220.671 19.7458 219.927 19.2592 219.099 18.976C217.898 18.5253 216.568 18.5589 215.391 19.0696C214.974 19.2967 214.582 19.5672 214.222 19.8766C214.494 19.4715 214.864 19.1416 215.298 18.9176C215.898 18.6186 216.551 18.4428 217.22 18.4006C217.889 18.3584 218.56 18.4507 219.192 18.672C220.085 18.9554 220.89 19.4627 221.531 20.1456C222.248 20.9361 222.783 21.8743 223.099 22.894C223.72 25.2276 223.72 27.6831 223.099 30.0167C222.504 32.2989 222.047 34.6149 221.73 36.9521C221.567 38.8629 221.665 40.7871 222.023 42.6712C222.262 43.9436 222.614 45.1922 223.075 46.4021C223.403 47.3261 223.625 47.7822 223.59 47.8056Z" fill="#455A64"/>
<path d="M213.334 21.1631C213.315 20.9608 213.315 20.7572 213.334 20.5549C213.334 20.1222 213.334 19.5491 213.334 18.8357C213.44 16.7303 213.207 14.6215 212.643 12.5902C212.229 11.2033 211.546 9.91159 210.632 8.78919C209.604 7.49409 208.191 6.56005 206.597 6.1226C204.816 5.71337 202.958 5.79012 201.217 6.34482C199.334 6.94704 197.529 7.7674 195.837 8.78919C194.119 9.82489 192.334 10.7432 190.492 11.5377C188.737 12.2187 186.877 12.5907 184.995 12.637C183.293 12.6843 181.594 12.4753 179.954 12.0172C178.534 11.6147 177.164 11.0496 175.873 10.333C174.006 9.28373 172.362 7.88153 171.031 6.20448C170.665 5.75637 170.336 5.27917 170.048 4.77762C169.934 4.61221 169.836 4.43593 169.756 4.25132C169.896 4.39594 170.017 4.55694 170.118 4.73082C170.436 5.20893 170.783 5.66602 171.159 6.09922C172.528 7.70438 174.176 9.04776 176.025 10.064C177.302 10.7459 178.652 11.2833 180.048 11.6663C181.656 12.0974 183.32 12.2866 184.983 12.2277C186.819 12.1704 188.631 11.7985 190.34 11.1283C192.156 10.3362 193.918 9.4259 195.615 8.40323C197.337 7.36233 199.179 6.53371 201.1 5.93547C202.915 5.36402 204.851 5.29531 206.702 5.73664C208.373 6.2051 209.851 7.19211 210.924 8.55528C211.845 9.72707 212.532 11.0652 212.948 12.4967C213.491 14.5669 213.681 16.714 213.509 18.8474C213.509 19.5959 213.404 20.169 213.369 20.5666C213.386 20.7661 213.375 20.9671 213.334 21.1631Z" fill="#455A64"/>
<path d="M229.52 101.827C229.52 101.827 265.437 113.301 267.776 119.523C269.566 124.201 288.419 180.761 292.477 217.637C292.854 221.213 292.516 224.828 291.481 228.271C290.445 231.715 288.735 234.918 286.448 237.693C284.162 240.468 281.346 242.76 278.164 244.435C274.982 246.11 271.499 247.135 267.917 247.449C243.625 249.683 208.363 252.583 208.363 250.583V219.999L254.104 213.321L237.181 163.58L229.52 101.827Z" fill="#263238"/>
<path d="M183.486 244.408C188.164 245.578 208.42 245.578 208.42 245.578V221.59C208.42 221.59 199.602 217.836 197.169 215.637C194.737 213.438 187.813 200.538 187.813 200.538C186.577 201.284 185.606 202.397 185.036 203.723C184.465 205.049 184.324 206.52 184.632 207.93C185.801 213.204 187.953 213.847 188.14 215.941C188.14 215.941 188.328 216.491 188.328 216.514C188.807 219.438 185.988 222.023 185.988 222.023C185.062 221.323 184.021 220.789 182.912 220.444C178.655 219.941 173.556 222.993 173.556 224.701C173.556 224.701 173.416 229.297 173.556 229.987C173.696 230.677 175.895 231.578 175.895 231.578C175.895 231.578 175.217 234.642 175.895 236.011C176.659 237.036 177.68 237.843 178.854 238.35C178.854 238.35 180.842 243.73 183.486 244.408Z" fill="#B78876"/>
<path d="M188.398 240.548C185.115 240.912 181.804 240.189 178.971 238.49C179.041 238.326 181.053 239.133 183.649 239.66C186.246 240.186 188.398 240.373 188.398 240.548Z" fill="#AA6550"/>
<path d="M187.205 233.356C185.41 233.889 183.514 233.989 181.673 233.648C179.808 233.5 178.006 232.902 176.422 231.905C176.492 231.742 178.761 232.654 181.755 233.075C184.749 233.496 187.182 233.204 187.205 233.356Z" fill="#AA6550"/>
<path d="M186.504 212.725C187.224 213.594 187.775 214.589 188.129 215.66C188.35 216.199 188.526 216.754 188.656 217.321C188.831 217.992 188.831 218.697 188.656 219.368C188.177 220.868 187.138 222.125 185.755 222.876C185.062 223.286 184.308 223.583 183.521 223.754C182.797 223.894 182.061 223.968 181.323 223.976C179.942 223.976 178.703 223.976 177.674 224.034C175.603 224.034 174.364 224.338 174.329 224.257C175.38 223.814 176.51 223.591 177.65 223.602C178.691 223.52 179.989 223.496 181.299 223.414C182.002 223.389 182.703 223.307 183.393 223.169C184.117 223.005 184.812 222.728 185.451 222.35C186.708 221.663 187.661 220.527 188.118 219.169C188.274 218.579 188.274 217.958 188.118 217.368C188.018 216.824 187.877 216.288 187.697 215.766C187.077 213.894 186.422 212.771 186.504 212.725Z" fill="#AA6550"/>
<path d="M254.666 213.181C254.077 213.358 253.474 213.487 252.864 213.567L247.929 214.409C243.754 215.099 237.988 216.011 231.555 216.982C225.123 217.953 219.38 218.771 215.181 219.321C210.983 219.871 208.375 220.151 208.375 219.988L210.176 219.684L215.123 218.888L231.497 216.362C237.882 215.403 243.66 214.549 247.87 214.023L252.829 213.368C253.434 213.248 254.049 213.185 254.666 213.181Z" fill="#455A64"/>
<path d="M274.069 208.643C272.87 208.74 271.665 208.74 270.466 208.643C268.244 208.549 265.18 208.374 261.8 208.14C260.245 207.941 258.671 207.96 257.122 208.199C256.512 208.303 255.93 208.528 255.408 208.859C254.886 209.19 254.435 209.622 254.081 210.128C253.637 210.843 253.482 211.701 253.648 212.526C253.788 213.099 254.011 213.38 253.964 213.415C253.917 213.45 253.648 213.204 253.426 212.584C253.286 212.143 253.239 211.677 253.287 211.216C253.335 210.755 253.478 210.309 253.707 209.906C254.073 209.327 254.553 208.828 255.118 208.44C255.683 208.052 256.321 207.783 256.993 207.649C258.592 207.368 260.224 207.329 261.835 207.532C265.227 207.766 268.279 208.011 270.49 208.21C271.693 208.255 272.89 208.399 274.069 208.643Z" fill="#455A64"/>
<path d="M266.606 217.029C264.39 216.699 262.209 216.163 260.092 215.426C257.917 214.886 255.795 214.151 253.753 213.228C255.968 213.571 258.148 214.111 260.267 214.842C262.439 215.387 264.56 216.119 266.606 217.029Z" fill="#455A64"/>
<path d="M238.209 157.182C238.361 157.182 242.045 168.761 246.396 183.158C250.747 197.556 254.209 209.263 254.045 209.31C253.881 209.356 250.197 197.731 245.858 183.334C241.519 168.937 238.045 157.241 238.209 157.182Z" fill="#455A64"/>
<path d="M264.993 120.388C264.993 120.505 262.888 120.821 259.695 122.061C255.526 123.659 251.743 126.122 248.596 129.29C245.449 132.457 243.009 136.255 241.438 140.434C240.268 143.639 239.929 145.768 239.812 145.744C239.807 145.244 239.866 144.744 239.988 144.259C240.235 142.912 240.586 141.586 241.04 140.294C242.528 135.99 244.969 132.078 248.181 128.849C251.393 125.621 255.293 123.16 259.59 121.651C260.878 121.194 262.2 120.834 263.543 120.575C264.017 120.458 264.504 120.395 264.993 120.388Z" fill="#455A64"/>
<path d="M145.604 145.335C145.643 145.606 145.666 145.88 145.675 146.154C145.675 146.75 145.675 147.522 145.745 148.493C145.745 150.586 145.85 153.498 145.92 157.066C146.014 164.375 146.131 174.352 146.259 185.369C146.388 196.386 146.388 206.421 146.435 213.66C146.435 217.228 146.435 220.14 146.435 222.233V224.572C146.467 224.84 146.467 225.111 146.435 225.379C146.382 225.114 146.358 224.843 146.365 224.572C146.365 223.976 146.365 223.204 146.294 222.233C146.294 220.128 146.189 217.216 146.119 213.649C146.025 206.351 145.908 196.374 145.768 185.357C145.628 174.34 145.651 164.364 145.604 157.054C145.604 153.487 145.604 150.574 145.604 148.481C145.604 147.522 145.604 146.75 145.604 146.142C145.573 145.874 145.573 145.603 145.604 145.335Z" fill="#455A64"/>
<path d="M202.152 394.696C202.044 394.412 201.962 394.118 201.906 393.819C201.766 393.176 201.579 392.333 201.333 391.281C200.842 389.07 200.164 385.866 199.369 381.924C197.778 373.995 195.731 363.013 193.79 350.826C191.848 338.639 190.363 327.563 189.404 319.529C188.924 315.517 188.574 312.266 188.351 310.02L188.106 307.424C188.075 307.12 188.075 306.815 188.106 306.511C188.177 306.808 188.232 307.109 188.269 307.412C188.351 308.055 188.468 308.909 188.62 309.985C188.924 312.324 189.345 315.517 189.872 319.482C190.936 327.493 192.48 338.557 194.421 350.732C196.363 362.907 198.339 373.901 199.825 381.843C200.573 385.772 201.17 388.965 201.602 391.257C201.79 392.322 201.953 393.176 202.07 393.819C202.123 394.108 202.151 394.402 202.152 394.696Z" fill="#263238"/>
<path d="M267.975 247.449C267.975 247.613 254.795 248.618 238.514 249.694C222.234 250.77 209.041 251.507 209.03 251.332C209.018 251.156 222.199 250.162 238.479 249.086C254.759 248.01 267.964 247.238 267.975 247.449Z" fill="#455A64"/>
</svg>
