<svg width="47" height="46" viewBox="0 0 47 46" fill="none" xmlns="http://www.w3.org/2000/svg">
<g clip-path="url(#clip0_443_525)">
<path d="M14.1949 31.7107C13.95 31.9162 13.6577 32.0448 13.3823 32.0683C13.1068 32.0917 12.8708 32.008 12.7262 31.8357C12.5816 31.6633 12.5402 31.4164 12.6111 31.1492C12.682 30.882 12.8594 30.6165 13.1043 30.411L24.4935 20.8543L20.6764 16.3053C20.5688 16.1767 20.5177 16.0056 20.5296 15.8137C20.5415 15.6218 20.6158 15.4176 20.7432 15.227C20.8706 15.0363 21.0454 14.8678 21.2454 14.7426C21.4454 14.6174 21.6618 14.5412 21.8671 14.5236L33.617 13.5236C33.8922 13.5003 34.1279 13.584 34.2725 13.7562C34.417 13.9284 34.4584 14.1751 34.3877 14.4421L31.3626 25.8399C31.3096 26.039 31.197 26.2388 31.0389 26.4141C30.8809 26.5893 30.6846 26.7321 30.4747 26.8245C30.2648 26.9169 30.0509 26.9546 29.8598 26.933C29.6687 26.9114 29.5091 26.8314 29.4012 26.7031L25.5841 22.154L14.1949 31.7107Z" fill="white"/>
</g>
<defs>
<clipPath id="clip0_443_525">
<rect width="27.1467" height="38.5751" fill="white" transform="translate(29.5503) rotate(50)"/>
</clipPath>
</defs>
</svg>
