<svg width="160" height="43" viewBox="0 0 160 43" fill="none" xmlns="http://www.w3.org/2000/svg">
<g filter="url(#filter0_b_383_433)">
<path d="M12.6905 6.11147C8.22094 6.4815 2.43071 6.6394 0.883332 5.19252C0.492206 4.8268 0.305683 4.12523 0.309446 3.58977C0.321596 1.8608 2.09407 1 3.82308 1H31.4654C32.3316 0.999986 33.4471 1.45514 34.102 1.76272C34.4724 1.93665 34.8173 2.15775 35.141 2.40793C35.6959 2.83668 36.5829 3.55596 37.0508 4.11458C37.764 4.9661 38.4413 6.45048 38.5437 6.96957C38.6461 7.48867 38.9728 8.37538 39.0628 9.30554C39.1901 10.621 38.9695 11.7485 38.8032 12.6797C38.5879 13.8853 38.2549 14.4509 37.5055 15.5347C35.97 17.7554 35.0253 20.5373 36.7764 22.5924C41.9128 28.6205 50.3397 39.555 44.9618 40.7108C44.8746 40.7296 44.7852 40.7468 44.6938 40.7625C41.4827 41.3141 38.6177 38.9945 37.1099 36.1062C34.9072 31.8869 31.6597 25.6769 29.4414 21.4827C28.7711 20.2152 27.4552 19.4279 26.0215 19.4279H23.8263C22.8946 19.4279 22.1392 18.6726 22.1392 17.7408C22.1392 16.8091 22.8929 16.0538 23.8247 16.0538H29.6486C31.2764 16.0538 32.1501 15.5462 33.2822 14.4965C34.8572 13.0362 35.371 11.436 35.0991 9.30554C34.8982 7.73178 34.442 6.7545 33.2822 5.67186C32.5206 4.96087 31.132 4.50027 30.3096 4.27591C29.8724 4.15664 29.4203 4.11458 28.9671 4.11458C25.1865 4.11458 22.1217 7.17938 22.1217 10.96V16.0538C22.1217 17.9173 20.611 19.4279 18.7475 19.4279H18.2386L18.2193 19.4279C18.0876 19.428 16.5608 19.4389 15.9158 19.8689C15.1372 20.388 14.57 21.3144 14.1469 22.3258C13.3682 24.1869 13.1793 25.274 13.2624 26.3551C13.3607 27.6327 13.8657 29.0676 14.8543 30.3289C16.1126 31.9344 17.4924 32.8213 19.5262 32.6649C21.294 32.5289 22.4848 31.8991 23.6789 30.5885C24.6869 29.4822 23.7492 27.3698 25.2362 26.9548C26.2555 26.6703 27.1609 26.915 27.8317 27.7334C28.8477 28.9729 27.4397 30.3045 26.534 31.6267C25.6392 32.9328 24.8345 33.5121 23.4194 34.2221C21.4079 35.2315 19.9511 35.1998 17.7093 35.0008C15.2507 34.7825 12.7292 33.6955 11.7397 32.9244C10.7503 32.1533 8.77788 30.3167 8.25095 27.8292C7.89705 26.1585 7.82807 24.3106 8.64268 22.2275C9.56613 19.8661 10.7721 17.8706 12.8485 16.8324C12.9903 16.7615 13.1434 16.6969 13.3052 16.6382C15.8658 15.708 18.2284 13.7976 18.2284 11.0732C18.2284 8.13395 15.6197 5.86896 12.6905 6.11147Z" fill="#4DAF60"/>
<path d="M22.1217 31.6266C22.1909 31.5938 22.1579 25.2434 22.1359 21.9216C22.1286 20.8264 21.2384 19.947 20.1432 19.947C19.0733 19.947 18.1946 20.79 18.1585 21.8592C18.0436 25.2567 17.8623 32.0052 18.2284 32.1533C20.1341 32.9244 21.7065 31.8237 22.1217 31.6266Z" fill="#4DAF60"/>
<path d="M18.2284 38.6281V35.7794C18.2284 35.0109 18.8565 35.6159 20.3306 35.3964C21.0908 35.2832 22.0984 34.6282 22.1217 35.3964C22.1323 35.7487 22.13 37.3482 22.1266 38.5488C22.1242 39.369 23.6093 40.196 22.9708 40.7108C22.4927 41.0964 17.8737 41.0964 17.4498 40.7108C16.8742 40.1874 18.2284 39.4061 18.2284 38.6281Z" fill="#4DAF60"/>
</g>
<path d="M52.4609 36V26.99H49.8259V24.304H59.0569V26.99H56.4219V36H52.4609ZM59.2226 36V27.483H62.7586V29.608C62.9852 28.8373 63.3366 28.2707 63.8126 27.908C64.2999 27.5453 64.8779 27.364 65.5466 27.364L65.9716 30.373C65.6996 30.339 65.4332 30.322 65.1726 30.322C63.5972 30.322 62.8096 30.968 62.8096 32.26V36H59.2226ZM71.3311 36.136C69.8917 36.136 68.7641 35.7733 67.9481 35.048C67.1434 34.3113 66.7411 33.297 66.7411 32.005V27.483H70.2431V32.158C70.2431 32.6113 70.3394 32.9457 70.5321 33.161C70.7361 33.3763 71.0081 33.484 71.3481 33.484C71.6767 33.484 71.9317 33.3763 72.1131 33.161C72.3057 32.9457 72.4021 32.6113 72.4021 32.158V27.483H75.8361V32.005C75.8361 33.3083 75.4394 34.3227 74.6461 35.048C73.8641 35.7733 72.7591 36.136 71.3311 36.136ZM80.1881 36.136C79.6781 36.136 79.1624 36.085 78.6411 35.983C78.1197 35.881 77.6494 35.7393 77.2301 35.558L77.7231 33.416C77.9837 33.552 78.3407 33.671 78.7941 33.773C79.2474 33.8637 79.6497 33.909 80.0011 33.909C80.5677 33.909 80.8511 33.756 80.8511 33.45C80.8511 33.3027 80.7604 33.195 80.5791 33.127C80.4091 33.059 80.1824 33.0023 79.8991 32.957C79.6271 32.9003 79.3324 32.8323 79.0151 32.753C78.6977 32.6623 78.3974 32.532 78.1141 32.362C77.8421 32.1807 77.6154 31.9257 77.4341 31.597C77.2641 31.2683 77.1791 30.8377 77.1791 30.305C77.1791 29.4097 77.5304 28.6957 78.2331 28.163C78.9471 27.6303 79.9217 27.364 81.1571 27.364C81.6331 27.364 82.0751 27.398 82.4831 27.466C82.9024 27.534 83.2991 27.6757 83.6731 27.891L83.3161 29.965C82.7154 29.7157 82.0864 29.591 81.4291 29.591C81.0097 29.591 80.7037 29.625 80.5111 29.693C80.3297 29.761 80.2391 29.8743 80.2391 30.033C80.2391 30.1577 80.3297 30.254 80.5111 30.322C80.6924 30.39 80.9247 30.458 81.2081 30.526C81.5027 30.5827 81.8087 30.6677 82.1261 30.781C82.4434 30.883 82.7437 31.0303 83.0271 31.223C83.3217 31.4157 83.5597 31.6763 83.7411 32.005C83.9224 32.3223 84.0131 32.736 84.0131 33.246C84.0131 34.1527 83.6787 34.861 83.0101 35.371C82.3414 35.881 81.4007 36.136 80.1881 36.136ZM88.842 36.136C88.0373 36.136 87.38 36 86.87 35.728C86.3713 35.456 86.0087 35.0877 85.782 34.623C85.5553 34.1583 85.442 33.637 85.442 33.059V29.591H84.354V27.483H85.697L87.278 24.797H89.029V27.483H91.001V29.591H89.029V32.566C89.029 32.8267 89.114 33.0307 89.284 33.178C89.454 33.314 89.675 33.382 89.947 33.382C90.219 33.382 90.491 33.314 90.763 33.178L91.018 35.541C90.746 35.7337 90.4003 35.881 89.981 35.983C89.5617 36.085 89.182 36.136 88.842 36.136ZM96.2761 36.136C95.3241 36.136 94.5024 35.949 93.8111 35.575C93.1197 35.201 92.5871 34.691 92.2131 34.045C91.8391 33.3877 91.6521 32.634 91.6521 31.784C91.6521 30.9453 91.8447 30.1917 92.2301 29.523C92.6154 28.8543 93.1537 28.3273 93.8451 27.942C94.5477 27.5567 95.3581 27.364 96.2761 27.364C97.3754 27.364 98.2424 27.5907 98.8771 28.044L98.5031 30.356C98.2197 30.2313 97.9534 30.1463 97.7041 30.101C97.4547 30.0443 97.2167 30.016 96.9901 30.016C96.4347 30.016 95.9927 30.1747 95.6641 30.492C95.3467 30.798 95.1881 31.2173 95.1881 31.75C95.1881 32.2713 95.3467 32.6963 95.6641 33.025C95.9814 33.3423 96.4007 33.501 96.9221 33.501C97.3754 33.501 97.9081 33.4047 98.5201 33.212L98.8431 35.592C98.4691 35.7733 98.0781 35.9093 97.6701 36C97.2734 36.0907 96.8087 36.136 96.2761 36.136ZM100.145 36V24.797L103.732 24.27V29.234C103.97 28.6447 104.344 28.1857 104.854 27.857C105.364 27.5283 105.976 27.364 106.69 27.364C107.801 27.364 108.662 27.7493 109.274 28.52C109.886 29.2793 110.192 30.356 110.192 31.75V36H106.605V31.563C106.605 30.5543 106.197 30.05 105.381 30.05C104.894 30.05 104.497 30.2313 104.191 30.594C103.885 30.9453 103.732 31.4213 103.732 32.022V36H100.145ZM117.087 33.756C117.415 33.756 117.761 33.722 118.124 33.654C118.498 33.586 118.877 33.4613 119.263 33.28L119.671 35.473C119.251 35.6883 118.792 35.8527 118.294 35.966C117.806 36.0793 117.245 36.136 116.611 36.136C115.466 36.136 114.503 35.949 113.721 35.575C112.95 35.201 112.366 34.6853 111.97 34.028C111.573 33.3707 111.375 32.6113 111.375 31.75C111.375 30.866 111.584 30.0953 112.004 29.438C112.434 28.7807 113.007 28.2707 113.721 27.908C114.435 27.5453 115.222 27.364 116.084 27.364C117.364 27.364 118.345 27.7663 119.025 28.571C119.705 29.3643 120.045 30.4977 120.045 31.971L114.979 32.617C115.353 33.3763 116.055 33.756 117.087 33.756ZM114.707 31.053L117.376 30.492C117.33 30.1293 117.206 29.863 117.002 29.693C116.798 29.5117 116.543 29.421 116.237 29.421C115.783 29.421 115.421 29.5797 115.149 29.897C114.888 30.203 114.741 30.5883 114.707 31.053ZM125.428 36.136C124.476 36.136 123.655 35.949 122.963 35.575C122.272 35.201 121.739 34.691 121.365 34.045C120.991 33.3877 120.804 32.634 120.804 31.784C120.804 30.9453 120.997 30.1917 121.382 29.523C121.768 28.8543 122.306 28.3273 122.997 27.942C123.7 27.5567 124.51 27.364 125.428 27.364C126.528 27.364 127.395 27.5907 128.029 28.044L127.655 30.356C127.372 30.2313 127.106 30.1463 126.856 30.101C126.607 30.0443 126.369 30.016 126.142 30.016C125.587 30.016 125.145 30.1747 124.816 30.492C124.499 30.798 124.34 31.2173 124.34 31.75C124.34 32.2713 124.499 32.6963 124.816 33.025C125.134 33.3423 125.553 33.501 126.074 33.501C126.528 33.501 127.06 33.4047 127.672 33.212L127.995 35.592C127.621 35.7733 127.23 35.9093 126.822 36C126.426 36.0907 125.961 36.136 125.428 36.136ZM132.885 36H129.298V24.797L132.885 24.27V30.101L136.88 26.854L138.716 29.217L136.319 31.223C136.477 32.0277 136.71 32.5943 137.016 32.923C137.322 33.2403 137.718 33.399 138.206 33.399C138.41 33.399 138.653 33.365 138.937 33.297L138.682 36.034C138.466 36.0793 138.274 36.1077 138.104 36.119C137.934 36.1303 137.769 36.136 137.611 36.136C136.489 36.136 135.599 35.8697 134.942 35.337C134.296 34.793 133.82 33.9997 133.514 32.957L132.885 33.501V36ZM144.977 33.756C145.306 33.756 145.652 33.722 146.014 33.654C146.388 33.586 146.768 33.4613 147.153 33.28L147.561 35.473C147.142 35.6883 146.683 35.8527 146.184 35.966C145.697 36.0793 145.136 36.136 144.501 36.136C143.357 36.136 142.393 35.949 141.611 35.575C140.841 35.201 140.257 34.6853 139.86 34.028C139.464 33.3707 139.265 32.6113 139.265 31.75C139.265 30.866 139.475 30.0953 139.894 29.438C140.325 28.7807 140.897 28.2707 141.611 27.908C142.325 27.5453 143.113 27.364 143.974 27.364C145.255 27.364 146.235 27.7663 146.915 28.571C147.595 29.3643 147.935 30.4977 147.935 31.971L142.869 32.617C143.243 33.3763 143.946 33.756 144.977 33.756ZM142.597 31.053L145.266 30.492C145.221 30.1293 145.096 29.863 144.892 29.693C144.688 29.5117 144.433 29.421 144.127 29.421C143.674 29.421 143.311 29.5797 143.039 29.897C142.779 30.203 142.631 30.5883 142.597 31.053ZM149.12 36V27.483H152.656V29.608C152.883 28.8373 153.234 28.2707 153.71 27.908C154.197 27.5453 154.775 27.364 155.444 27.364L155.869 30.373C155.597 30.339 155.331 30.322 155.07 30.322C153.495 30.322 152.707 30.968 152.707 32.26V36H149.12Z" fill="white"/>
<defs>
<filter id="filter0_b_383_433" x="-39.6904" y="-39" width="126.38" height="120" filterUnits="userSpaceOnUse" color-interpolation-filters="sRGB">
<feFlood flood-opacity="0" result="BackgroundImageFix"/>
<feGaussianBlur in="BackgroundImageFix" stdDeviation="20"/>
<feComposite in2="SourceAlpha" operator="in" result="effect1_backgroundBlur_383_433"/>
<feBlend mode="normal" in="SourceGraphic" in2="effect1_backgroundBlur_383_433" result="shape"/>
</filter>
</defs>
</svg>
