<?xml version="1.0" standalone="no"?>
<!DOCTYPE svg PUBLIC "-//W3C//DTD SVG 20010904//EN"
 "http://www.w3.org/TR/2001/REC-SVG-20010904/DTD/svg10.dtd">
<svg version="1.0" xmlns="http://www.w3.org/2000/svg"
 width="500.000000pt" height="500.000000pt" viewBox="0 0 500.000000 500.000000"
 preserveAspectRatio="xMidYMid meet">

<g transform="translate(0.000000,500.000000) scale(0.100000,-0.100000)"
fill="#000000" stroke="none">
<path d="M0 2500 l0 -2500 2500 0 2500 0 0 2500 0 2500 -2500 0 -2500 0 0
-2500z m910 130 l0 -40 -125 0 -125 0 0 40 0 40 125 0 125 0 0 -40z m205 30
c61 -14 95 -58 95 -121 0 -45 -4 -55 -35 -86 l-35 -35 26 -57 c14 -31 32 -71
40 -88 l14 -33 -43 0 -44 0 -38 85 c-32 72 -41 85 -61 85 -23 0 -24 -2 -24
-85 l0 -85 -40 0 -40 0 0 125 0 125 81 0 c96 0 119 10 119 50 0 40 -23 50
-119 50 l-81 0 0 40 0 40 73 0 c39 0 90 -5 112 -10z m433 -164 l-3 -175 -29
-30 c-50 -52 -130 -64 -204 -31 -64 29 -82 75 -82 218 l0 112 40 0 40 0 0
-110 c0 -104 1 -112 25 -135 28 -29 79 -33 113 -9 21 14 22 21 22 168 0 84 3
156 7 159 3 4 22 7 40 7 l34 0 -3 -174z m194 164 c43 -12 88 -61 88 -96 0 -21
-5 -24 -34 -24 -25 0 -38 6 -50 25 -19 29 -56 33 -80 9 -33 -32 -8 -84 41 -84
14 0 40 -7 59 -16 86 -41 86 -177 0 -218 -54 -26 -66 -22 -66 23 0 30 4 40 19
44 10 2 24 14 30 26 10 18 8 25 -13 46 -14 14 -37 25 -52 25 -55 0 -114 58
-114 113 0 58 39 110 95 126 40 12 35 12 77 1z m358 -30 l0 -40 -125 0 -125 0
0 40 0 40 125 0 125 0 0 -40z m340 -50 l0 -90 -40 0 -40 0 0 51 0 52 -42 -7
c-24 -4 -54 -14 -66 -22 -34 -22 -55 -80 -49 -132 8 -77 62 -112 172 -112 l65
0 0 -41 0 -41 -87 4 c-154 8 -224 65 -231 188 -10 165 67 235 261 239 l57 1 0
-90z m100 -5 l0 -95 -40 0 -40 0 0 95 0 95 40 0 40 0 0 -95z m240 -120 l0
-215 -40 0 -40 0 0 40 0 40 -80 0 -80 0 0 -40 0 -40 -40 0 -40 0 0 80 0 80
120 0 120 0 0 135 0 135 40 0 40 0 0 -215z m220 175 l0 -40 -61 0 -60 0 3 -47
3 -48 88 -3 88 -3 -3 -37 -3 -37 -87 -3 -88 -3 0 -44 0 -45 60 0 60 0 0 -40 0
-40 -100 0 -100 0 0 215 0 215 100 0 100 0 0 -40z m390 -50 l0 -90 -40 0 -40
0 0 51 0 52 -42 -7 c-24 -4 -54 -14 -66 -22 -34 -22 -55 -80 -49 -132 8 -77
62 -112 172 -112 l65 0 0 -41 0 -41 -87 4 c-154 8 -224 65 -231 188 -10 165
67 235 261 239 l57 1 0 -90z m100 -6 c0 -113 -3 -114 97 13 l66 83 49 0 c26 0
48 -3 48 -6 0 -3 -38 -53 -85 -110 l-86 -105 86 -99 c47 -54 85 -101 85 -104
0 -3 -24 -6 -52 -6 l-53 1 -60 76 -59 76 -58 -64 -58 -64 0 203 0 202 40 0 40
0 0 -96z m480 56 l0 -40 -60 0 -60 0 0 -50 0 -50 85 0 85 0 0 -40 0 -40 -85 0
-85 0 0 -45 0 -45 60 0 60 0 0 -40 0 -40 -100 0 -100 0 0 215 0 215 100 0 100
0 0 -40z m262 30 c56 -16 88 -60 88 -122 0 -44 -4 -54 -36 -86 l-36 -36 17
-35 c10 -20 28 -60 41 -88 l24 -53 -45 0 -45 0 -39 85 c-31 67 -44 85 -60 85
-20 0 -21 -6 -21 -85 l0 -85 -45 0 -45 0 0 125 0 125 78 0 c100 0 121 6 129
38 11 44 -24 62 -123 62 l-84 0 0 33 c0 19 3 37 7 40 10 11 154 8 195 -3z
m-3402 -285 l0 -135 -40 0 -40 0 0 135 0 135 40 0 40 0 0 -135z m1190 0 l0
-135 -40 0 -40 0 0 135 0 135 40 0 40 0 0 -135z"/>
</g>
</svg>
